<svg width="300" height="790" viewBox="0 0 300 790" fill="none" xmlns="http://www.w3.org/2000/svg">
<rect width="300" height="790" fill="white"/>
<path d="M24.1727 29L30.2818 34.6L28.7273 36L20 28L28.7273 20L30.2818 21.4L24.1727 27H44V29H24.1727Z" fill="#1D1B20"/>
<g filter="url(#filter0_d_1_363)">
<rect x="20" y="86" width="260" height="50" rx="10" fill="white"/>
</g>
<path d="M91.7138 117V105.364H93.1229V110.545H99.3274V105.364H100.737V117H99.3274V111.795H93.1229V117H91.7138ZM103.376 117V108.273H104.717V117H103.376ZM104.058 106.818C103.796 106.818 103.571 106.729 103.381 106.551C103.196 106.373 103.103 106.159 103.103 105.909C103.103 105.659 103.196 105.445 103.381 105.267C103.571 105.089 103.796 105 104.058 105C104.319 105 104.542 105.089 104.728 105.267C104.917 105.445 105.012 105.659 105.012 105.909C105.012 106.159 104.917 106.373 104.728 106.551C104.542 106.729 104.319 106.818 104.058 106.818ZM113.354 110.227L112.15 110.568C112.074 110.367 111.962 110.172 111.815 109.983C111.671 109.79 111.474 109.631 111.224 109.506C110.974 109.381 110.654 109.318 110.263 109.318C109.729 109.318 109.284 109.441 108.928 109.688C108.576 109.93 108.4 110.239 108.4 110.614C108.4 110.947 108.521 111.21 108.763 111.403C109.006 111.597 109.385 111.758 109.9 111.886L111.195 112.205C111.976 112.394 112.557 112.684 112.94 113.074C113.322 113.46 113.513 113.958 113.513 114.568C113.513 115.068 113.37 115.515 113.082 115.909C112.798 116.303 112.4 116.614 111.888 116.841C111.377 117.068 110.782 117.182 110.104 117.182C109.214 117.182 108.478 116.989 107.894 116.602C107.311 116.216 106.942 115.652 106.786 114.909L108.059 114.591C108.18 115.061 108.409 115.413 108.746 115.648C109.087 115.883 109.532 116 110.082 116C110.707 116 111.203 115.867 111.57 115.602C111.942 115.333 112.127 115.011 112.127 114.636C112.127 114.333 112.021 114.08 111.809 113.875C111.597 113.667 111.271 113.511 110.832 113.409L109.377 113.068C108.578 112.879 107.991 112.585 107.616 112.188C107.245 111.786 107.059 111.284 107.059 110.682C107.059 110.189 107.197 109.754 107.474 109.375C107.754 108.996 108.135 108.699 108.616 108.483C109.101 108.267 109.65 108.159 110.263 108.159C111.127 108.159 111.805 108.348 112.298 108.727C112.794 109.106 113.146 109.606 113.354 110.227ZM119.327 108.273V109.409H114.805V108.273H119.327ZM116.123 106.182H117.464V114.5C117.464 114.879 117.519 115.163 117.629 115.352C117.742 115.538 117.886 115.663 118.06 115.727C118.238 115.788 118.426 115.818 118.623 115.818C118.771 115.818 118.892 115.811 118.987 115.795C119.081 115.777 119.157 115.761 119.214 115.75L119.487 116.955C119.396 116.989 119.269 117.023 119.106 117.057C118.943 117.095 118.737 117.114 118.487 117.114C118.108 117.114 117.737 117.032 117.373 116.869C117.013 116.706 116.714 116.458 116.475 116.125C116.24 115.792 116.123 115.371 116.123 114.864V106.182ZM124.796 117.182C124.008 117.182 123.317 116.994 122.722 116.619C122.131 116.244 121.669 115.72 121.336 115.045C121.006 114.371 120.842 113.583 120.842 112.682C120.842 111.773 121.006 110.979 121.336 110.301C121.669 109.623 122.131 109.097 122.722 108.722C123.317 108.347 124.008 108.159 124.796 108.159C125.584 108.159 126.273 108.347 126.864 108.722C127.459 109.097 127.921 109.623 128.251 110.301C128.584 110.979 128.751 111.773 128.751 112.682C128.751 113.583 128.584 114.371 128.251 115.045C127.921 115.72 127.459 116.244 126.864 116.619C126.273 116.994 125.584 117.182 124.796 117.182ZM124.796 115.977C125.395 115.977 125.887 115.824 126.273 115.517C126.66 115.21 126.946 114.807 127.131 114.307C127.317 113.807 127.41 113.265 127.41 112.682C127.41 112.098 127.317 111.555 127.131 111.051C126.946 110.547 126.66 110.14 126.273 109.83C125.887 109.519 125.395 109.364 124.796 109.364C124.198 109.364 123.705 109.519 123.319 109.83C122.933 110.14 122.647 110.547 122.461 111.051C122.275 111.555 122.183 112.098 122.183 112.682C122.183 113.265 122.275 113.807 122.461 114.307C122.647 114.807 122.933 115.21 123.319 115.517C123.705 115.824 124.198 115.977 124.796 115.977ZM130.798 117V108.273H132.093V109.591H132.184C132.343 109.159 132.631 108.809 133.048 108.54C133.464 108.271 133.934 108.136 134.457 108.136C134.555 108.136 134.678 108.138 134.826 108.142C134.974 108.146 135.085 108.152 135.161 108.159V109.523C135.116 109.511 135.012 109.494 134.849 109.472C134.69 109.445 134.521 109.432 134.343 109.432C133.919 109.432 133.54 109.521 133.207 109.699C132.877 109.873 132.616 110.116 132.423 110.426C132.233 110.733 132.138 111.083 132.138 111.477V117H130.798ZM137.88 120.273C137.653 120.273 137.45 120.254 137.272 120.216C137.094 120.182 136.971 120.148 136.903 120.114L137.244 118.932C137.569 119.015 137.857 119.045 138.107 119.023C138.357 119 138.579 118.888 138.772 118.688C138.969 118.491 139.149 118.17 139.312 117.727L139.562 117.045L136.335 108.273H137.789L140.198 115.227H140.289L142.698 108.273H144.153L140.448 118.273C140.281 118.723 140.075 119.097 139.829 119.392C139.583 119.691 139.297 119.913 138.971 120.057C138.649 120.201 138.285 120.273 137.88 120.273Z" fill="#252B36"/>
<mask id="path-5-inside-1_1_363" fill="white">
<path d="M53.1107 99C50.6949 99.0128 48.3513 99.9004 46.447 101.524C44.5427 103.147 43.1854 105.414 42.5876 107.97L41.8563 106.763C41.7871 106.636 41.6952 106.527 41.586 106.44C41.4769 106.353 41.3528 106.292 41.2213 106.259C41.0898 106.226 40.9536 106.223 40.8208 106.249C40.6881 106.275 40.5616 106.331 40.449 106.412C40.3364 106.493 40.24 106.598 40.1656 106.721C40.0912 106.844 40.0404 106.982 40.0162 107.127C39.992 107.272 39.9949 107.421 40.0248 107.564C40.0547 107.708 40.1109 107.844 40.1901 107.963L42.3878 111.6C42.5405 111.833 42.7655 111.998 43.0211 112.063C43.2821 112.12 43.553 112.063 43.7764 111.905L47.0729 109.48C47.1866 109.403 47.2848 109.301 47.3617 109.181C47.4387 109.061 47.4927 108.926 47.5207 108.783C47.5487 108.64 47.5501 108.492 47.5247 108.348C47.4993 108.204 47.4477 108.068 47.3729 107.946C47.2982 107.825 47.2018 107.721 47.0896 107.641C46.9773 107.561 46.8515 107.507 46.7196 107.481C46.5877 107.455 46.4524 107.459 46.3217 107.491C46.1911 107.524 46.0677 107.585 45.9591 107.67L44.4596 108.774C44.8587 107.005 45.7051 105.395 46.9022 104.126C48.0993 102.857 49.5989 101.981 51.23 101.598C52.8611 101.215 54.5579 101.34 56.1269 101.959C57.6958 102.579 59.0738 103.667 60.1035 105.101C61.1332 106.534 61.7732 108.255 61.9504 110.067C62.1277 111.878 61.8351 113.708 61.106 115.346C60.3769 116.985 59.2407 118.367 57.827 119.334C56.4133 120.302 54.779 120.816 53.1107 120.818C51.6805 120.814 50.2724 120.432 49.0061 119.706C47.7398 118.981 46.6527 117.932 45.8372 116.648C45.7642 116.526 45.6694 116.421 45.5584 116.339C45.4474 116.257 45.3225 116.201 45.1912 116.173C45.0598 116.145 44.9246 116.146 44.7937 116.176C44.6628 116.207 44.5387 116.265 44.4289 116.349C44.3191 116.432 44.2258 116.539 44.1546 116.663C44.0833 116.787 44.0355 116.925 44.0141 117.069C43.9926 117.213 43.9979 117.361 44.0297 117.503C44.0614 117.645 44.119 117.778 44.1989 117.895C45.5246 119.982 47.4284 121.55 49.6305 122.368C51.8326 123.186 54.2168 123.211 56.4328 122.439C58.6488 121.667 60.5797 120.14 61.9417 118.08C63.3036 116.021 64.0249 113.54 63.9993 111C64.0092 107.833 62.8683 104.791 60.827 102.541C58.7857 100.292 56.0107 99.0182 53.1107 99Z"/>
</mask>
<path d="M53.1107 99C50.6949 99.0128 48.3513 99.9004 46.447 101.524C44.5427 103.147 43.1854 105.414 42.5876 107.97L41.8563 106.763C41.7871 106.636 41.6952 106.527 41.586 106.44C41.4769 106.353 41.3528 106.292 41.2213 106.259C41.0898 106.226 40.9536 106.223 40.8208 106.249C40.6881 106.275 40.5616 106.331 40.449 106.412C40.3364 106.493 40.24 106.598 40.1656 106.721C40.0912 106.844 40.0404 106.982 40.0162 107.127C39.992 107.272 39.9949 107.421 40.0248 107.564C40.0547 107.708 40.1109 107.844 40.1901 107.963L42.3878 111.6C42.5405 111.833 42.7655 111.998 43.0211 112.063C43.2821 112.12 43.553 112.063 43.7764 111.905L47.0729 109.48C47.1866 109.403 47.2848 109.301 47.3617 109.181C47.4387 109.061 47.4927 108.926 47.5207 108.783C47.5487 108.64 47.5501 108.492 47.5247 108.348C47.4993 108.204 47.4477 108.068 47.3729 107.946C47.2982 107.825 47.2018 107.721 47.0896 107.641C46.9773 107.561 46.8515 107.507 46.7196 107.481C46.5877 107.455 46.4524 107.459 46.3217 107.491C46.1911 107.524 46.0677 107.585 45.9591 107.67L44.4596 108.774C44.8587 107.005 45.7051 105.395 46.9022 104.126C48.0993 102.857 49.5989 101.981 51.23 101.598C52.8611 101.215 54.5579 101.34 56.1269 101.959C57.6958 102.579 59.0738 103.667 60.1035 105.101C61.1332 106.534 61.7732 108.255 61.9504 110.067C62.1277 111.878 61.8351 113.708 61.106 115.346C60.3769 116.985 59.2407 118.367 57.827 119.334C56.4133 120.302 54.779 120.816 53.1107 120.818C51.6805 120.814 50.2724 120.432 49.0061 119.706C47.7398 118.981 46.6527 117.932 45.8372 116.648C45.7642 116.526 45.6694 116.421 45.5584 116.339C45.4474 116.257 45.3225 116.201 45.1912 116.173C45.0598 116.145 44.9246 116.146 44.7937 116.176C44.6628 116.207 44.5387 116.265 44.4289 116.349C44.3191 116.432 44.2258 116.539 44.1546 116.663C44.0833 116.787 44.0355 116.925 44.0141 117.069C43.9926 117.213 43.9979 117.361 44.0297 117.503C44.0614 117.645 44.119 117.778 44.1989 117.895C45.5246 119.982 47.4284 121.55 49.6305 122.368C51.8326 123.186 54.2168 123.211 56.4328 122.439C58.6488 121.667 60.5797 120.14 61.9417 118.08C63.3036 116.021 64.0249 113.54 63.9993 111C64.0092 107.833 62.8683 104.791 60.827 102.541C58.7857 100.292 56.0107 99.0182 53.1107 99Z" fill="black"/>
<path d="M53.1107 99L53.2444 77.6671L53.1208 77.6663L52.9973 77.667L53.1107 99ZM42.5876 107.97L24.339 119.02L51.4438 163.783L63.3604 112.829L42.5876 107.97ZM41.8563 106.763L23.1444 117.008L23.3673 117.416L23.6078 117.813L41.8563 106.763ZM40.1901 107.963L58.4489 96.9297L58.2152 96.543L57.9654 96.1666L40.1901 107.963ZM42.3878 111.6L24.129 122.633L24.3272 122.961L24.537 123.281L42.3878 111.6ZM43.0211 112.063L37.7191 132.727L38.11 132.828L38.5044 132.913L43.0211 112.063ZM43.7764 111.905L56.0968 129.321L56.2584 129.207L56.4177 129.09L43.7764 111.905ZM47.0729 109.48L35.0535 91.8551L34.7386 92.0699L34.4315 92.2957L47.0729 109.48ZM45.9591 107.67L58.6075 124.85L58.8905 124.641L59.1664 124.424L45.9591 107.67ZM44.4596 108.774L23.6493 104.08L11.0679 159.851L57.1081 125.954L44.4596 108.774ZM53.1107 120.818L53.0478 142.151L53.0918 142.151L53.1358 142.151L53.1107 120.818ZM45.8372 116.648L27.5146 127.575L27.6699 127.836L27.8325 128.091L45.8372 116.648ZM44.0141 117.069L65.1153 120.207L44.0141 117.069ZM44.1989 117.895L62.2066 106.457L62.02 106.163L61.824 105.876L44.1989 117.895ZM63.9993 111L42.6661 110.934L42.6657 111.074L42.6671 111.214L63.9993 111ZM52.9973 77.667C45.3551 77.7076 38.193 80.5273 32.6074 85.2887L60.2866 117.759C58.5096 119.274 56.0347 120.318 53.224 120.333L52.9973 77.667ZM32.6074 85.2887C27.0596 90.0179 23.3955 96.3532 21.8148 103.112L63.3604 112.829C62.9752 114.476 62.0258 116.276 60.2866 117.759L32.6074 85.2887ZM60.8362 96.9205L60.1049 95.7129L23.6078 117.813L24.339 119.02L60.8362 96.9205ZM60.5683 96.5171C59.1794 93.9806 57.262 91.6444 54.843 89.7258L28.329 123.154C26.1284 121.409 24.3948 119.292 23.1444 117.008L60.5683 96.5171ZM54.843 89.7258C52.4183 87.8026 49.5487 86.3489 46.3818 85.5593L36.0608 126.959C33.1569 126.235 30.5355 124.904 28.329 123.154L54.843 89.7258ZM46.3818 85.5593C43.2094 84.7684 39.897 84.685 36.6792 85.3218L44.9624 127.177C42.0102 127.761 38.9702 127.684 36.0608 126.959L46.3818 85.5593ZM36.6792 85.3218C33.466 85.9577 30.5128 87.278 27.982 89.1005L52.916 123.723C50.6104 125.384 47.9102 126.593 44.9624 127.177L36.6792 85.3218ZM27.982 89.1005C25.4575 90.9186 23.4228 93.1834 21.9152 95.6743L58.416 117.768C57.0571 120.013 55.2153 122.068 52.916 123.723L27.982 89.1005ZM21.9152 95.6743C20.4092 98.1622 19.4329 100.866 18.9741 103.614L61.0583 110.64C60.6479 113.098 59.7732 115.526 58.416 117.768L21.9152 95.6743ZM18.9741 103.614C18.5154 106.362 18.5698 109.175 19.1386 111.909L60.911 103.219C61.4201 105.666 61.4686 108.182 61.0583 110.64L18.9741 103.614ZM19.1386 111.909C19.7076 114.644 20.796 117.32 22.4148 119.759L57.9654 96.1666C59.4258 98.3673 60.4018 100.772 60.911 103.219L19.1386 111.909ZM21.9313 118.996L24.129 122.633L60.6466 100.567L58.4489 96.9297L21.9313 118.996ZM24.537 123.281C27.4246 127.694 31.9956 131.259 37.7191 132.727L48.3231 91.3995C53.5354 92.7369 57.6563 95.9721 60.2386 99.9182L24.537 123.281ZM38.5044 132.913C44.7707 134.271 51.1256 132.838 56.0968 129.321L31.4559 94.4893C35.9804 91.2885 41.7936 89.9693 47.5379 91.2138L38.5044 132.913ZM56.4177 129.09L59.7143 126.665L34.4315 92.2957L31.135 94.7208L56.4177 129.09ZM59.0923 127.105C61.6561 125.357 63.744 123.152 65.3134 120.707L29.4101 97.6552C30.8256 95.4505 32.7171 93.4484 35.0535 91.8551L59.0923 127.105ZM65.3134 120.707C66.8809 118.266 67.9252 115.599 68.4574 112.877L26.584 104.688C27.0603 102.253 27.9964 99.8569 29.4101 97.6552L65.3134 120.707ZM68.4574 112.877C68.9895 110.157 69.0143 107.362 68.5324 104.635L26.5169 112.061C26.0858 109.622 26.1079 107.123 26.584 104.688L68.4574 112.877ZM68.5324 104.635C68.0503 101.908 67.0571 99.2281 65.5411 96.7648L29.2047 119.128C27.8382 116.908 26.9482 114.501 26.5169 112.061L68.5324 104.635ZM65.5411 96.7648C64.0232 94.2986 61.9857 92.0597 59.4664 90.2652L34.7127 125.017C32.4179 123.383 30.5731 121.351 29.2047 119.128L65.5411 96.7648ZM59.4664 90.2652C56.9409 88.4663 54.0009 87.1664 50.8068 86.5429L42.6323 128.419C39.7021 127.847 37.0137 126.656 34.7127 125.017L59.4664 90.2652ZM50.8068 86.5429C47.6084 85.9186 44.3184 86.0054 41.1669 86.7901L51.4765 128.193C48.5863 128.912 45.5669 128.992 42.6323 128.419L50.8068 86.5429ZM41.1669 86.7901C38.0206 87.5736 35.1672 89.0128 32.7518 90.917L59.1664 124.424C56.9682 126.157 54.3615 127.474 51.4765 128.193L41.1669 86.7901ZM33.3106 90.4911L31.8112 91.5951L57.1081 125.954L58.6075 124.85L33.3106 90.4911ZM65.27 113.469C64.8626 115.275 63.9526 117.14 62.4202 118.765L31.3842 89.4865C27.4575 93.6489 24.8548 98.7357 23.6493 104.08L65.27 113.469ZM62.4202 118.765C60.8727 120.405 58.7208 121.752 56.107 122.366L46.353 80.8292C40.4771 82.209 35.3259 85.3081 31.3842 89.4865L62.4202 118.765ZM56.107 122.366C53.4751 122.984 50.7383 122.768 48.293 121.802L63.9608 82.1164C58.3775 79.9121 52.247 79.4451 46.353 80.8292L56.107 122.366ZM48.293 121.802C45.8719 120.846 44.0196 119.277 42.7769 117.547L77.43 92.6548C74.128 88.0579 69.5198 84.311 63.9608 82.1164L48.293 121.802ZM42.7769 117.547C41.5437 115.83 40.8952 113.95 40.7185 112.144L83.1824 107.989C82.6512 102.56 80.7226 97.2386 77.43 92.6548L42.7769 117.547ZM40.7185 112.144C40.5419 110.339 40.8203 108.46 41.6148 106.674L80.5972 124.018C82.8499 118.955 83.7135 113.417 83.1824 107.989L40.7185 112.144ZM41.6148 106.674C42.4126 104.881 43.7753 103.1 45.7788 101.729L69.8751 136.94C74.7061 133.634 78.3412 129.089 80.5972 124.018L41.6148 106.674ZM45.7788 101.729C47.8057 100.342 50.3418 99.4878 53.0855 99.4845L53.1358 142.151C59.2162 142.144 65.0209 140.262 69.8751 136.94L45.7788 101.729ZM53.1735 99.4846C55.5234 99.4916 57.7401 100.123 59.6156 101.198L38.3966 138.215C42.8047 140.741 47.8376 142.136 53.0478 142.151L53.1735 99.4846ZM59.6156 101.198C61.4771 102.266 62.8814 103.694 63.8419 105.206L27.8325 128.091C30.4239 132.169 34.0024 135.696 38.3966 138.215L59.6156 101.198ZM64.1598 105.722C62.6818 103.243 60.6848 100.983 58.203 99.1571L32.9137 133.521C30.6539 131.858 28.8465 129.809 27.5146 127.575L64.1598 105.722ZM58.203 99.1571C55.7154 97.3264 52.8065 95.9825 49.6311 95.3068L40.7512 137.039C37.8386 136.419 35.1794 135.189 32.9137 133.521L58.203 99.1571ZM49.6311 95.3068C46.451 94.6302 43.1641 94.659 39.9998 95.3887L49.5876 136.964C46.6852 137.633 43.6686 137.66 40.7512 137.039L49.6311 95.3068ZM39.9998 95.3887C36.8403 96.1173 33.96 97.5073 31.5088 99.3729L57.3491 133.325C55.1174 135.023 52.4852 136.296 49.5876 136.964L39.9998 95.3887ZM31.5088 99.3729C29.0632 101.234 27.1065 103.519 25.6694 106.013L62.6397 127.312C61.3452 129.559 59.5751 131.631 57.3491 133.325L31.5088 99.3729ZM25.6694 106.013C24.2339 108.505 23.3191 111.199 22.9128 113.931L65.1153 120.207C64.752 122.65 63.9327 125.068 62.6397 127.312L25.6694 106.013ZM22.9128 113.931C22.5066 116.662 22.6052 119.452 23.2107 122.159L64.8486 112.846C65.3907 115.27 65.4786 117.765 65.1153 120.207L22.9128 113.931ZM23.2107 122.159C23.8164 124.867 24.9341 127.51 26.5739 129.915L61.824 105.876C63.3038 108.046 64.3065 110.422 64.8486 112.846L23.2107 122.159ZM26.1913 129.334C29.8741 135.132 35.395 139.838 42.2032 142.367L57.0577 102.369C59.4618 103.262 61.1751 104.833 62.2066 106.457L26.1913 129.334ZM42.2032 142.367C49.0507 144.91 56.5422 144.991 63.4489 142.585L49.4167 102.292C51.8914 101.43 54.6145 101.462 57.0577 102.369L42.2032 142.367ZM63.4489 142.585C70.3175 140.193 75.9385 135.589 79.7347 129.85L44.1487 106.311C45.2209 104.69 46.9801 103.141 49.4167 102.292L63.4489 142.585ZM79.7347 129.85C83.517 124.132 85.3986 117.453 85.3316 110.786L42.6671 111.214C42.6511 109.626 43.0902 107.911 44.1487 106.311L79.7347 129.85ZM85.3326 111.066C85.3582 102.825 82.408 94.5779 76.6257 88.2056L45.0284 116.877C43.3287 115.004 42.6602 112.841 42.6661 110.934L85.3326 111.066ZM76.6257 88.2056C70.7869 81.771 62.4277 77.7247 53.2444 77.6671L52.9769 120.333C49.5938 120.312 46.7846 118.812 45.0284 116.877L76.6257 88.2056Z" fill="#787878" mask="url(#path-5-inside-1_1_363)"/>
<path d="M55.3013 115.073L55.1783 114.938L55.178 114.937L55.0922 114.843C55.1778 114.824 55.263 114.804 55.3478 114.783C55.348 114.783 55.3483 114.783 55.3485 114.783C55.4735 114.752 55.5975 114.719 55.7203 114.683M55.3013 115.073C55.4894 115.275 55.7423 115.389 56.0061 115.391M55.3013 115.073L55.7358 114.679M55.3013 115.073L55.7203 114.683M56.0061 115.391C56.27 115.392 56.524 115.281 56.7138 115.081C56.9019 114.877 57.0082 114.6 57.0093 114.311C57.0094 114.277 57.0081 114.244 57.0054 114.21C56.9296 114.245 56.8531 114.278 56.7761 114.31C56.5717 114.396 56.3635 114.475 56.1517 114.547L56.0192 114.422M56.0061 115.391L56.0105 114.594M56.0061 115.391L56.0105 114.594M56.0192 114.422L56.1449 114.308L56.8313 113.685C56.8266 113.677 56.8219 113.67 56.8171 113.663L56.1243 114.308L56.0114 114.413M56.0192 114.422L56.0114 114.414M56.0192 114.422L56.0113 114.429M56.0114 114.413L56.012 114.307L56.0114 114.413ZM56.0114 114.413L56.0105 114.413M56.0105 114.413L55.898 114.307L55.886 114.295L55.8858 114.295L53.0107 111.567L52.9521 111.511L52.7808 111.348L53.0107 111.144L53.1736 111H53.5155H54.4165L54.3847 110.965L53.5403 110.977L53.1932 110.983L53.6788 110.552L54.0096 110.258V110.224L53.6483 110.552L53.1731 110.983L53.0107 110.985L52.4073 110.994L52.0117 110.619V110.74V111H52.2936L52.7202 111.394L52.3044 111.771L52.7249 111.398L52.8993 111.559L53.0107 111.662L55.8742 114.306L55.8744 114.306L55.8752 114.307L56.0007 114.423M56.0105 114.413L56.0007 114.423M56.0105 114.413L56.0114 114.414M56.0007 114.423L55.7203 114.683M56.0007 114.423L56.0095 114.431L56.0113 114.429M55.7203 114.683C55.7255 114.682 55.7307 114.68 55.7358 114.679M55.7358 114.679C55.828 114.652 55.9195 114.624 56.0105 114.594M56.0114 114.414L56.0113 114.429M56.0114 114.414L56.0113 114.429" fill="#787878" stroke="#787878" stroke-width="21.3333"/>
<g filter="url(#filter1_d_1_363)">
<rect x="20" y="156" width="260" height="50" rx="10" fill="white"/>
</g>
<path d="M52 193H64M58 169.871C58.5304 169.313 59.2499 169 60 169C60.3714 169 60.7392 169.077 61.0824 169.226C61.4256 169.376 61.7374 169.595 62 169.871C62.2626 170.147 62.471 170.475 62.6131 170.836C62.7553 171.196 62.8284 171.583 62.8284 171.974C62.8284 172.364 62.7553 172.751 62.6131 173.112C62.471 173.472 62.2626 173.8 62 174.076L45.3333 191.598L40 193L41.3333 187.393L58 169.871Z" stroke="#787878" stroke-width="3" stroke-linecap="round" stroke-linejoin="round"/>
<path d="M100.773 179H99.3636C99.2803 178.595 99.1345 178.239 98.9261 177.932C98.7216 177.625 98.4716 177.367 98.1761 177.159C97.8845 176.947 97.5606 176.788 97.2045 176.682C96.8485 176.576 96.4773 176.523 96.0909 176.523C95.3864 176.523 94.7481 176.701 94.1761 177.057C93.608 177.413 93.1553 177.938 92.8182 178.631C92.4848 179.324 92.3182 180.174 92.3182 181.182C92.3182 182.189 92.4848 183.04 92.8182 183.733C93.1553 184.426 93.608 184.951 94.1761 185.307C94.7481 185.663 95.3864 185.841 96.0909 185.841C96.4773 185.841 96.8485 185.788 97.2045 185.682C97.5606 185.576 97.8845 185.419 98.1761 185.21C98.4716 184.998 98.7216 184.739 98.9261 184.432C99.1345 184.121 99.2803 183.765 99.3636 183.364H100.773C100.667 183.958 100.473 184.491 100.193 184.96C99.9129 185.43 99.5644 185.83 99.1477 186.159C98.7311 186.485 98.2633 186.733 97.7443 186.903C97.2292 187.074 96.678 187.159 96.0909 187.159C95.0985 187.159 94.2159 186.917 93.4432 186.432C92.6705 185.947 92.0625 185.258 91.6193 184.364C91.1761 183.47 90.9545 182.409 90.9545 181.182C90.9545 179.955 91.1761 178.894 91.6193 178C92.0625 177.106 92.6705 176.417 93.4432 175.932C94.2159 175.447 95.0985 175.205 96.0909 175.205C96.678 175.205 97.2292 175.29 97.7443 175.46C98.2633 175.631 98.7311 175.881 99.1477 176.21C99.5644 176.536 99.9129 176.934 100.193 177.403C100.473 177.869 100.667 178.402 100.773 179ZM102.868 187V178.273H104.163V179.591H104.254C104.413 179.159 104.701 178.809 105.118 178.54C105.535 178.271 106.004 178.136 106.527 178.136C106.625 178.136 106.749 178.138 106.896 178.142C107.044 178.146 107.156 178.152 107.232 178.159V179.523C107.186 179.511 107.082 179.494 106.919 179.472C106.76 179.445 106.591 179.432 106.413 179.432C105.989 179.432 105.61 179.521 105.277 179.699C104.947 179.873 104.686 180.116 104.493 180.426C104.304 180.733 104.209 181.083 104.209 181.477V187H102.868ZM112.214 187.182C111.374 187.182 110.648 186.996 110.038 186.625C109.432 186.25 108.964 185.727 108.635 185.057C108.309 184.383 108.146 183.598 108.146 182.705C108.146 181.811 108.309 181.023 108.635 180.341C108.964 179.655 109.423 179.121 110.01 178.739C110.601 178.352 111.29 178.159 112.078 178.159C112.533 178.159 112.982 178.235 113.425 178.386C113.868 178.538 114.271 178.784 114.635 179.125C114.999 179.462 115.288 179.909 115.504 180.466C115.72 181.023 115.828 181.708 115.828 182.523V183.091H109.101V181.932H114.464C114.464 181.439 114.366 181 114.169 180.614C113.976 180.227 113.699 179.922 113.339 179.699C112.983 179.475 112.563 179.364 112.078 179.364C111.544 179.364 111.082 179.496 110.692 179.761C110.305 180.023 110.008 180.364 109.8 180.784C109.591 181.205 109.487 181.655 109.487 182.136V182.909C109.487 183.568 109.601 184.127 109.828 184.585C110.059 185.04 110.379 185.386 110.788 185.625C111.197 185.86 111.673 185.977 112.214 185.977C112.567 185.977 112.885 185.928 113.169 185.83C113.457 185.727 113.705 185.576 113.913 185.375C114.122 185.17 114.283 184.917 114.396 184.614L115.692 184.977C115.555 185.417 115.326 185.803 115.004 186.136C114.682 186.466 114.285 186.723 113.811 186.909C113.338 187.091 112.805 187.182 112.214 187.182ZM120.436 187.205C119.883 187.205 119.381 187.1 118.93 186.892C118.48 186.68 118.122 186.375 117.857 185.977C117.591 185.576 117.459 185.091 117.459 184.523C117.459 184.023 117.557 183.617 117.754 183.307C117.951 182.992 118.214 182.746 118.544 182.568C118.874 182.39 119.237 182.258 119.635 182.17C120.036 182.08 120.44 182.008 120.845 181.955C121.375 181.886 121.805 181.835 122.135 181.801C122.468 181.763 122.711 181.701 122.862 181.614C123.018 181.527 123.095 181.375 123.095 181.159V181.114C123.095 180.553 122.942 180.117 122.635 179.807C122.332 179.496 121.872 179.341 121.254 179.341C120.614 179.341 120.112 179.481 119.749 179.761C119.385 180.042 119.129 180.341 118.982 180.659L117.709 180.205C117.936 179.674 118.239 179.261 118.618 178.966C119 178.667 119.417 178.458 119.868 178.341C120.322 178.22 120.769 178.159 121.209 178.159C121.489 178.159 121.811 178.193 122.175 178.261C122.542 178.326 122.896 178.46 123.237 178.665C123.582 178.869 123.868 179.178 124.095 179.591C124.322 180.004 124.436 180.557 124.436 181.25V187H123.095V185.818H123.027C122.936 186.008 122.785 186.21 122.572 186.426C122.36 186.642 122.078 186.826 121.726 186.977C121.374 187.129 120.944 187.205 120.436 187.205ZM120.641 186C121.171 186 121.618 185.896 121.982 185.688C122.349 185.479 122.625 185.21 122.811 184.881C123 184.551 123.095 184.205 123.095 183.841V182.614C123.038 182.682 122.913 182.744 122.72 182.801C122.531 182.854 122.311 182.902 122.061 182.943C121.815 182.981 121.574 183.015 121.339 183.045C121.108 183.072 120.921 183.095 120.777 183.114C120.429 183.159 120.103 183.233 119.8 183.335C119.5 183.434 119.258 183.583 119.072 183.784C118.891 183.981 118.8 184.25 118.8 184.591C118.8 185.057 118.972 185.409 119.317 185.648C119.665 185.883 120.107 186 120.641 186ZM130.679 178.273V179.409H126.156V178.273H130.679ZM127.474 176.182H128.815V184.5C128.815 184.879 128.87 185.163 128.98 185.352C129.094 185.538 129.238 185.663 129.412 185.727C129.59 185.788 129.777 185.818 129.974 185.818C130.122 185.818 130.243 185.811 130.338 185.795C130.433 185.777 130.509 185.761 130.565 185.75L130.838 186.955C130.747 186.989 130.62 187.023 130.457 187.057C130.295 187.095 130.088 187.114 129.838 187.114C129.459 187.114 129.088 187.032 128.724 186.869C128.365 186.706 128.065 186.458 127.827 186.125C127.592 185.792 127.474 185.371 127.474 184.864V176.182ZM136.261 187.182C135.42 187.182 134.695 186.996 134.085 186.625C133.479 186.25 133.011 185.727 132.682 185.057C132.356 184.383 132.193 183.598 132.193 182.705C132.193 181.811 132.356 181.023 132.682 180.341C133.011 179.655 133.47 179.121 134.057 178.739C134.648 178.352 135.337 178.159 136.125 178.159C136.58 178.159 137.028 178.235 137.472 178.386C137.915 178.538 138.318 178.784 138.682 179.125C139.045 179.462 139.335 179.909 139.551 180.466C139.767 181.023 139.875 181.708 139.875 182.523V183.091H133.148V181.932H138.511C138.511 181.439 138.413 181 138.216 180.614C138.023 180.227 137.746 179.922 137.386 179.699C137.03 179.475 136.61 179.364 136.125 179.364C135.591 179.364 135.129 179.496 134.739 179.761C134.352 180.023 134.055 180.364 133.847 180.784C133.638 181.205 133.534 181.655 133.534 182.136V182.909C133.534 183.568 133.648 184.127 133.875 184.585C134.106 185.04 134.426 185.386 134.835 185.625C135.244 185.86 135.72 185.977 136.261 185.977C136.614 185.977 136.932 185.928 137.216 185.83C137.504 185.727 137.752 185.576 137.96 185.375C138.169 185.17 138.33 184.917 138.443 184.614L139.739 184.977C139.602 185.417 139.373 185.803 139.051 186.136C138.729 186.466 138.331 186.723 137.858 186.909C137.384 187.091 136.852 187.182 136.261 187.182ZM150.824 183.364H152.369L153.665 185.068L154.006 185.523L155.938 188.091H154.392L153.119 186.386L152.801 185.955L150.824 183.364ZM156.415 181.182C156.415 182.409 156.193 183.47 155.75 184.364C155.307 185.258 154.699 185.947 153.926 186.432C153.153 186.917 152.271 187.159 151.278 187.159C150.286 187.159 149.403 186.917 148.631 186.432C147.858 185.947 147.25 185.258 146.807 184.364C146.364 183.47 146.142 182.409 146.142 181.182C146.142 179.955 146.364 178.894 146.807 178C147.25 177.106 147.858 176.417 148.631 175.932C149.403 175.447 150.286 175.205 151.278 175.205C152.271 175.205 153.153 175.447 153.926 175.932C154.699 176.417 155.307 177.106 155.75 178C156.193 178.894 156.415 179.955 156.415 181.182ZM155.051 181.182C155.051 180.174 154.883 179.324 154.545 178.631C154.212 177.938 153.759 177.413 153.188 177.057C152.619 176.701 151.983 176.523 151.278 176.523C150.574 176.523 149.936 176.701 149.364 177.057C148.795 177.413 148.343 177.938 148.006 178.631C147.672 179.324 147.506 180.174 147.506 181.182C147.506 182.189 147.672 183.04 148.006 183.733C148.343 184.426 148.795 184.951 149.364 185.307C149.936 185.663 150.574 185.841 151.278 185.841C151.983 185.841 152.619 185.663 153.188 185.307C153.759 184.951 154.212 184.426 154.545 183.733C154.883 183.04 155.051 182.189 155.051 181.182ZM158.784 187V175.364H162.716C163.625 175.364 164.371 175.519 164.955 175.83C165.538 176.136 165.97 176.559 166.25 177.097C166.53 177.634 166.67 178.246 166.67 178.932C166.67 179.617 166.53 180.225 166.25 180.756C165.97 181.286 165.54 181.703 164.96 182.006C164.381 182.305 163.64 182.455 162.739 182.455H159.557V181.182H162.693C163.314 181.182 163.814 181.091 164.193 180.909C164.576 180.727 164.852 180.47 165.023 180.136C165.197 179.799 165.284 179.398 165.284 178.932C165.284 178.466 165.197 178.059 165.023 177.71C164.848 177.362 164.57 177.093 164.188 176.903C163.805 176.71 163.299 176.614 162.67 176.614H160.193V187H158.784ZM164.261 181.773L167.125 187H165.489L162.67 181.773H164.261Z" fill="#252B36"/>
<g filter="url(#filter2_d_1_363)">
<rect x="20" y="226" width="260" height="50" rx="10" fill="white"/>
</g>
<path d="M52 254.273C53.8075 254.273 55.2727 252.807 55.2727 251C55.2727 249.193 53.8075 247.727 52 247.727C50.1925 247.727 48.7273 249.193 48.7273 251C48.7273 252.807 50.1925 254.273 52 254.273Z" stroke="#787878" stroke-width="3" stroke-linecap="round" stroke-linejoin="round"/>
<path d="M60.0727 254.273C59.9275 254.602 59.8842 254.967 59.9484 255.321C60.0125 255.675 60.1812 256.001 60.4327 256.258L60.4982 256.324C60.701 256.526 60.862 256.767 60.9718 257.032C61.0816 257.297 61.1381 257.581 61.1381 257.867C61.1381 258.154 61.0816 258.438 60.9718 258.703C60.862 258.968 60.701 259.208 60.4982 259.411C60.2956 259.614 60.0549 259.775 59.7901 259.884C59.5252 259.994 59.2413 260.051 58.9545 260.051C58.6678 260.051 58.3839 259.994 58.119 259.884C57.8542 259.775 57.6135 259.614 57.4109 259.411L57.3455 259.345C57.0884 259.094 56.7618 258.925 56.4079 258.861C56.054 258.797 55.689 258.84 55.36 258.985C55.0373 259.124 54.7622 259.353 54.5683 259.646C54.3745 259.939 54.2705 260.282 54.2691 260.633V260.818C54.2691 261.397 54.0392 261.952 53.6301 262.361C53.2209 262.77 52.6659 263 52.0873 263C51.5086 263 50.9537 262.77 50.5445 262.361C50.1353 261.952 49.9055 261.397 49.9055 260.818V260.72C49.897 260.359 49.7801 260.009 49.57 259.715C49.3599 259.421 49.0663 259.197 48.7273 259.073C48.3982 258.928 48.0332 258.884 47.6794 258.948C47.3255 259.013 46.9989 259.181 46.7418 259.433L46.6764 259.498C46.4737 259.701 46.2331 259.862 45.9682 259.972C45.7034 260.082 45.4195 260.138 45.1327 260.138C44.846 260.138 44.5621 260.082 44.2972 259.972C44.0324 259.862 43.7917 259.701 43.5891 259.498C43.3862 259.296 43.2253 259.055 43.1155 258.79C43.0057 258.525 42.9492 258.241 42.9492 257.955C42.9492 257.668 43.0057 257.384 43.1155 257.119C43.2253 256.854 43.3862 256.614 43.5891 256.411L43.6545 256.345C43.906 256.088 44.0747 255.762 44.1389 255.408C44.2031 255.054 44.1598 254.689 44.0145 254.36C43.8763 254.037 43.6466 253.762 43.354 253.568C43.0613 253.375 42.7183 253.27 42.3673 253.269H42.1818C41.6032 253.269 41.0482 253.039 40.639 252.63C40.2299 252.221 40 251.666 40 251.087C40 250.509 40.2299 249.954 40.639 249.544C41.0482 249.135 41.6032 248.905 42.1818 248.905H42.28C42.6411 248.897 42.9913 248.78 43.2851 248.57C43.5788 248.36 43.8026 248.066 43.9273 247.727C44.0725 247.398 44.1158 247.033 44.0516 246.679C43.9875 246.325 43.8188 245.999 43.5673 245.742L43.5018 245.676C43.299 245.474 43.138 245.233 43.0282 244.968C42.9184 244.703 42.8619 244.419 42.8619 244.133C42.8619 243.846 42.9184 243.562 43.0282 243.297C43.138 243.032 43.299 242.792 43.5018 242.589C43.7045 242.386 43.9451 242.225 44.2099 242.116C44.4748 242.006 44.7587 241.949 45.0455 241.949C45.3322 241.949 45.6161 242.006 45.881 242.116C46.1458 242.225 46.3865 242.386 46.5891 242.589L46.6545 242.655C46.9117 242.906 47.2382 243.075 47.5921 243.139C47.946 243.203 48.311 243.16 48.64 243.015H48.7273C49.0499 242.876 49.3251 242.647 49.5189 242.354C49.7128 242.061 49.8168 241.718 49.8182 241.367V241.182C49.8182 240.603 50.0481 240.048 50.4572 239.639C50.8664 239.23 51.4213 239 52 239C52.5787 239 53.1336 239.23 53.5428 239.639C53.9519 240.048 54.1818 240.603 54.1818 241.182V241.28C54.1832 241.631 54.2872 241.974 54.4811 242.267C54.6749 242.559 54.9501 242.789 55.2727 242.927C55.6018 243.072 55.9668 243.116 56.3206 243.052C56.6745 242.987 57.0011 242.819 57.2582 242.567L57.3236 242.502C57.5263 242.299 57.7669 242.138 58.0318 242.028C58.2966 241.918 58.5805 241.862 58.8673 241.862C59.154 241.862 59.4379 241.918 59.7028 242.028C59.9676 242.138 60.2083 242.299 60.4109 242.502C60.6138 242.704 60.7747 242.945 60.8845 243.21C60.9943 243.475 61.0508 243.759 61.0508 244.045C61.0508 244.332 60.9943 244.616 60.8845 244.881C60.7747 245.146 60.6138 245.386 60.4109 245.589L60.3455 245.655C60.094 245.912 59.9253 246.238 59.8611 246.592C59.7969 246.946 59.8402 247.311 59.9855 247.64V247.727C60.1237 248.05 60.3534 248.325 60.646 248.519C60.9387 248.713 61.2817 248.817 61.6327 248.818H61.8182C62.3968 248.818 62.9518 249.048 63.361 249.457C63.7701 249.866 64 250.421 64 251C64 251.579 63.7701 252.134 63.361 252.543C62.9518 252.952 62.3968 253.182 61.8182 253.182H61.72C61.369 253.183 61.026 253.287 60.7333 253.481C60.4406 253.675 60.211 253.95 60.0727 254.273Z" stroke="#787878" stroke-width="3" stroke-linecap="round" stroke-linejoin="round"/>
<path d="M97.7727 248.273C97.7045 247.697 97.428 247.25 96.9432 246.932C96.4583 246.614 95.8636 246.455 95.1591 246.455C94.6439 246.455 94.1932 246.538 93.8068 246.705C93.4242 246.871 93.125 247.1 92.9091 247.392C92.697 247.684 92.5909 248.015 92.5909 248.386C92.5909 248.697 92.6648 248.964 92.8125 249.188C92.964 249.407 93.1572 249.591 93.392 249.739C93.6269 249.883 93.8731 250.002 94.1307 250.097C94.3883 250.187 94.625 250.261 94.8409 250.318L96.0227 250.636C96.3258 250.716 96.6629 250.826 97.0341 250.966C97.4091 251.106 97.767 251.297 98.108 251.54C98.4527 251.778 98.7367 252.085 98.9602 252.46C99.1837 252.835 99.2955 253.295 99.2955 253.841C99.2955 254.47 99.1307 255.038 98.8011 255.545C98.4754 256.053 97.9981 256.456 97.3693 256.756C96.7443 257.055 95.9848 257.205 95.0909 257.205C94.2576 257.205 93.536 257.07 92.9261 256.801C92.3201 256.532 91.8428 256.157 91.4943 255.676C91.1496 255.195 90.9545 254.636 90.9091 254H92.3636C92.4015 254.439 92.5492 254.803 92.8068 255.091C93.0682 255.375 93.3977 255.587 93.7955 255.727C94.197 255.864 94.6288 255.932 95.0909 255.932C95.6288 255.932 96.1117 255.845 96.5398 255.67C96.9678 255.492 97.3068 255.246 97.5568 254.932C97.8068 254.614 97.9318 254.242 97.9318 253.818C97.9318 253.432 97.8239 253.117 97.608 252.875C97.392 252.633 97.108 252.436 96.7557 252.284C96.4034 252.133 96.0227 252 95.6136 251.886L94.1818 251.477C93.2727 251.216 92.553 250.843 92.0227 250.358C91.4924 249.873 91.2273 249.239 91.2273 248.455C91.2273 247.803 91.4034 247.235 91.7557 246.75C92.1117 246.261 92.589 245.883 93.1875 245.614C93.7898 245.341 94.4621 245.205 95.2045 245.205C95.9545 245.205 96.6212 245.339 97.2045 245.608C97.7879 245.873 98.25 246.237 98.5909 246.699C98.9356 247.161 99.1174 247.686 99.1364 248.273H97.7727ZM105.089 257.182C104.249 257.182 103.523 256.996 102.913 256.625C102.307 256.25 101.839 255.727 101.51 255.057C101.184 254.383 101.021 253.598 101.021 252.705C101.021 251.811 101.184 251.023 101.51 250.341C101.839 249.655 102.298 249.121 102.885 248.739C103.476 248.352 104.165 248.159 104.953 248.159C105.408 248.159 105.857 248.235 106.3 248.386C106.743 248.538 107.146 248.784 107.51 249.125C107.874 249.462 108.163 249.909 108.379 250.466C108.595 251.023 108.703 251.708 108.703 252.523V253.091H101.976V251.932H107.339C107.339 251.439 107.241 251 107.044 250.614C106.851 250.227 106.574 249.922 106.214 249.699C105.858 249.475 105.438 249.364 104.953 249.364C104.419 249.364 103.957 249.496 103.567 249.761C103.18 250.023 102.883 250.364 102.675 250.784C102.466 251.205 102.362 251.655 102.362 252.136V252.909C102.362 253.568 102.476 254.127 102.703 254.585C102.934 255.04 103.254 255.386 103.663 255.625C104.072 255.86 104.548 255.977 105.089 255.977C105.442 255.977 105.76 255.928 106.044 255.83C106.332 255.727 106.58 255.576 106.788 255.375C106.997 255.17 107.158 254.917 107.271 254.614L108.567 254.977C108.43 255.417 108.201 255.803 107.879 256.136C107.557 256.466 107.16 256.723 106.686 256.909C106.213 257.091 105.68 257.182 105.089 257.182ZM114.538 248.273V249.409H110.016V248.273H114.538ZM111.334 246.182H112.675V254.5C112.675 254.879 112.73 255.163 112.839 255.352C112.953 255.538 113.097 255.663 113.271 255.727C113.449 255.788 113.637 255.818 113.834 255.818C113.982 255.818 114.103 255.811 114.197 255.795C114.292 255.777 114.368 255.761 114.425 255.75L114.697 256.955C114.607 256.989 114.48 257.023 114.317 257.057C114.154 257.095 113.947 257.114 113.697 257.114C113.319 257.114 112.947 257.032 112.584 256.869C112.224 256.706 111.925 256.458 111.686 256.125C111.451 255.792 111.334 255.371 111.334 254.864V246.182ZM120.351 248.273V249.409H115.828V248.273H120.351ZM117.146 246.182H118.487V254.5C118.487 254.879 118.542 255.163 118.652 255.352C118.766 255.538 118.91 255.663 119.084 255.727C119.262 255.788 119.449 255.818 119.646 255.818C119.794 255.818 119.915 255.811 120.01 255.795C120.105 255.777 120.18 255.761 120.237 255.75L120.51 256.955C120.419 256.989 120.292 257.023 120.129 257.057C119.966 257.095 119.76 257.114 119.51 257.114C119.131 257.114 118.76 257.032 118.396 256.869C118.036 256.706 117.737 256.458 117.499 256.125C117.264 255.792 117.146 255.371 117.146 254.864V246.182ZM122.368 257V248.273H123.709V257H122.368ZM123.05 246.818C122.788 246.818 122.563 246.729 122.374 246.551C122.188 246.373 122.095 246.159 122.095 245.909C122.095 245.659 122.188 245.445 122.374 245.267C122.563 245.089 122.788 245 123.05 245C123.311 245 123.535 245.089 123.72 245.267C123.91 245.445 124.004 245.659 124.004 245.909C124.004 246.159 123.91 246.373 123.72 246.551C123.535 246.729 123.311 246.818 123.05 246.818ZM127.506 251.75V257H126.165V248.273H127.46V249.636H127.574C127.778 249.193 128.089 248.837 128.506 248.568C128.922 248.295 129.46 248.159 130.119 248.159C130.71 248.159 131.227 248.28 131.67 248.523C132.114 248.761 132.458 249.125 132.705 249.614C132.951 250.098 133.074 250.712 133.074 251.455V257H131.733V251.545C131.733 250.86 131.555 250.326 131.199 249.943C130.843 249.557 130.354 249.364 129.733 249.364C129.305 249.364 128.922 249.456 128.585 249.642C128.252 249.828 127.989 250.098 127.795 250.455C127.602 250.811 127.506 251.242 127.506 251.75ZM139.047 260.455C138.399 260.455 137.842 260.371 137.376 260.205C136.911 260.042 136.522 259.826 136.212 259.557C135.905 259.292 135.661 259.008 135.479 258.705L136.547 257.955C136.668 258.114 136.821 258.295 137.007 258.5C137.193 258.708 137.446 258.888 137.768 259.04C138.094 259.195 138.52 259.273 139.047 259.273C139.751 259.273 140.333 259.102 140.791 258.761C141.25 258.42 141.479 257.886 141.479 257.159V255.386H141.365C141.267 255.545 141.126 255.742 140.945 255.977C140.767 256.208 140.509 256.415 140.172 256.597C139.839 256.775 139.388 256.864 138.82 256.864C138.115 256.864 137.482 256.697 136.922 256.364C136.365 256.03 135.924 255.545 135.598 254.909C135.276 254.273 135.115 253.5 135.115 252.591C135.115 251.697 135.272 250.919 135.587 250.256C135.901 249.589 136.339 249.074 136.899 248.71C137.46 248.343 138.107 248.159 138.842 248.159C139.411 248.159 139.861 248.254 140.195 248.443C140.532 248.629 140.789 248.841 140.967 249.08C141.149 249.314 141.289 249.508 141.388 249.659H141.524V248.273H142.82V257.25C142.82 258 142.649 258.61 142.308 259.08C141.971 259.553 141.517 259.9 140.945 260.119C140.376 260.343 139.744 260.455 139.047 260.455ZM139.001 255.659C139.539 255.659 139.994 255.536 140.365 255.29C140.736 255.044 141.018 254.689 141.212 254.227C141.405 253.765 141.501 253.212 141.501 252.568C141.501 251.939 141.407 251.384 141.217 250.903C141.028 250.422 140.748 250.045 140.376 249.773C140.005 249.5 139.547 249.364 139.001 249.364C138.433 249.364 137.96 249.508 137.581 249.795C137.206 250.083 136.924 250.47 136.734 250.955C136.549 251.439 136.456 251.977 136.456 252.568C136.456 253.174 136.551 253.71 136.74 254.176C136.933 254.638 137.217 255.002 137.592 255.267C137.971 255.528 138.441 255.659 139.001 255.659Z" fill="#252B36"/>
<g filter="url(#filter3_d_1_363)">
<rect x="20" y="366" width="260" height="50" rx="10" fill="white"/>
</g>
<path d="M48 398.2H48.0114M42.2857 379H53.7143C54.9767 379 56 380.075 56 381.4V400.6C56 401.925 54.9767 403 53.7143 403H42.2857C41.0233 403 40 401.925 40 400.6V381.4C40 380.075 41.0233 379 42.2857 379Z" stroke="#787878" stroke-width="4" stroke-linecap="round" stroke-linejoin="round"/>
<path d="M101.227 391.182C101.227 392.409 101.006 393.47 100.562 394.364C100.119 395.258 99.5114 395.947 98.7386 396.432C97.9659 396.917 97.0833 397.159 96.0909 397.159C95.0985 397.159 94.2159 396.917 93.4432 396.432C92.6705 395.947 92.0625 395.258 91.6193 394.364C91.1761 393.47 90.9545 392.409 90.9545 391.182C90.9545 389.955 91.1761 388.894 91.6193 388C92.0625 387.106 92.6705 386.417 93.4432 385.932C94.2159 385.447 95.0985 385.205 96.0909 385.205C97.0833 385.205 97.9659 385.447 98.7386 385.932C99.5114 386.417 100.119 387.106 100.562 388C101.006 388.894 101.227 389.955 101.227 391.182ZM99.8636 391.182C99.8636 390.174 99.6951 389.324 99.358 388.631C99.0246 387.938 98.572 387.413 98 387.057C97.4318 386.701 96.7955 386.523 96.0909 386.523C95.3864 386.523 94.7481 386.701 94.1761 387.057C93.608 387.413 93.1553 387.938 92.8182 388.631C92.4848 389.324 92.3182 390.174 92.3182 391.182C92.3182 392.189 92.4848 393.04 92.8182 393.733C93.1553 394.426 93.608 394.951 94.1761 395.307C94.7481 395.663 95.3864 395.841 96.0909 395.841C96.7955 395.841 97.4318 395.663 98 395.307C98.572 394.951 99.0246 394.426 99.358 393.733C99.6951 393.04 99.8636 392.189 99.8636 391.182ZM108.915 393.432V388.273H110.256V397H108.915V395.523H108.824C108.619 395.966 108.301 396.343 107.869 396.653C107.438 396.96 106.892 397.114 106.233 397.114C105.688 397.114 105.203 396.994 104.778 396.756C104.354 396.513 104.021 396.15 103.778 395.665C103.536 395.176 103.415 394.561 103.415 393.818V388.273H104.756V393.727C104.756 394.364 104.934 394.871 105.29 395.25C105.65 395.629 106.108 395.818 106.665 395.818C106.998 395.818 107.337 395.733 107.682 395.562C108.03 395.392 108.322 395.131 108.557 394.778C108.795 394.426 108.915 393.977 108.915 393.432ZM112.712 397V388.273H114.007V389.591H114.098C114.257 389.159 114.545 388.809 114.962 388.54C115.378 388.271 115.848 388.136 116.371 388.136C116.469 388.136 116.592 388.138 116.74 388.142C116.888 388.146 117 388.152 117.075 388.159V389.523C117.03 389.511 116.926 389.494 116.763 389.472C116.604 389.445 116.435 389.432 116.257 389.432C115.833 389.432 115.454 389.521 115.121 389.699C114.791 389.873 114.53 390.116 114.337 390.426C114.147 390.733 114.053 391.083 114.053 391.477V397H112.712ZM123.824 397H122.347L126.619 385.364H128.074L132.347 397H130.869L127.392 387.205H127.301L123.824 397ZM124.369 392.455H130.324V393.705H124.369V392.455ZM133.977 400.273V388.273H135.273V389.659H135.432C135.53 389.508 135.667 389.314 135.841 389.08C136.019 388.841 136.273 388.629 136.602 388.443C136.936 388.254 137.386 388.159 137.955 388.159C138.689 388.159 139.337 388.343 139.898 388.71C140.458 389.078 140.896 389.598 141.21 390.273C141.525 390.947 141.682 391.742 141.682 392.659C141.682 393.583 141.525 394.384 141.21 395.062C140.896 395.737 140.46 396.259 139.903 396.631C139.347 396.998 138.705 397.182 137.977 397.182C137.417 397.182 136.968 397.089 136.631 396.903C136.294 396.714 136.034 396.5 135.852 396.261C135.67 396.019 135.53 395.818 135.432 395.659H135.318V400.273H133.977ZM135.295 392.636C135.295 393.295 135.392 393.877 135.585 394.381C135.778 394.881 136.061 395.273 136.432 395.557C136.803 395.837 137.258 395.977 137.795 395.977C138.356 395.977 138.824 395.83 139.199 395.534C139.578 395.235 139.862 394.833 140.051 394.33C140.244 393.822 140.341 393.258 140.341 392.636C140.341 392.023 140.246 391.47 140.057 390.977C139.871 390.481 139.589 390.089 139.21 389.801C138.835 389.509 138.364 389.364 137.795 389.364C137.25 389.364 136.792 389.502 136.42 389.778C136.049 390.051 135.769 390.434 135.58 390.926C135.39 391.415 135.295 391.985 135.295 392.636ZM143.727 400.273V388.273H145.023V389.659H145.182C145.28 389.508 145.417 389.314 145.591 389.08C145.769 388.841 146.023 388.629 146.352 388.443C146.686 388.254 147.136 388.159 147.705 388.159C148.439 388.159 149.087 388.343 149.648 388.71C150.208 389.078 150.646 389.598 150.96 390.273C151.275 390.947 151.432 391.742 151.432 392.659C151.432 393.583 151.275 394.384 150.96 395.062C150.646 395.737 150.21 396.259 149.653 396.631C149.097 396.998 148.455 397.182 147.727 397.182C147.167 397.182 146.718 397.089 146.381 396.903C146.044 396.714 145.784 396.5 145.602 396.261C145.42 396.019 145.28 395.818 145.182 395.659H145.068V400.273H143.727ZM145.045 392.636C145.045 393.295 145.142 393.877 145.335 394.381C145.528 394.881 145.811 395.273 146.182 395.557C146.553 395.837 147.008 395.977 147.545 395.977C148.106 395.977 148.574 395.83 148.949 395.534C149.328 395.235 149.612 394.833 149.801 394.33C149.994 393.822 150.091 393.258 150.091 392.636C150.091 392.023 149.996 391.47 149.807 390.977C149.621 390.481 149.339 390.089 148.96 389.801C148.585 389.509 148.114 389.364 147.545 389.364C147 389.364 146.542 389.502 146.17 389.778C145.799 390.051 145.519 390.434 145.33 390.926C145.14 391.415 145.045 391.985 145.045 392.636ZM159.659 390.227L158.455 390.568C158.379 390.367 158.267 390.172 158.119 389.983C157.975 389.79 157.778 389.631 157.528 389.506C157.278 389.381 156.958 389.318 156.568 389.318C156.034 389.318 155.589 389.441 155.233 389.688C154.881 389.93 154.705 390.239 154.705 390.614C154.705 390.947 154.826 391.21 155.068 391.403C155.311 391.597 155.689 391.758 156.205 391.886L157.5 392.205C158.28 392.394 158.862 392.684 159.244 393.074C159.627 393.46 159.818 393.958 159.818 394.568C159.818 395.068 159.674 395.515 159.386 395.909C159.102 396.303 158.705 396.614 158.193 396.841C157.682 397.068 157.087 397.182 156.409 397.182C155.519 397.182 154.782 396.989 154.199 396.602C153.616 396.216 153.246 395.652 153.091 394.909L154.364 394.591C154.485 395.061 154.714 395.413 155.051 395.648C155.392 395.883 155.837 396 156.386 396C157.011 396 157.508 395.867 157.875 395.602C158.246 395.333 158.432 395.011 158.432 394.636C158.432 394.333 158.326 394.08 158.114 393.875C157.902 393.667 157.576 393.511 157.136 393.409L155.682 393.068C154.883 392.879 154.295 392.585 153.92 392.188C153.549 391.786 153.364 391.284 153.364 390.682C153.364 390.189 153.502 389.754 153.778 389.375C154.059 388.996 154.439 388.699 154.92 388.483C155.405 388.267 155.955 388.159 156.568 388.159C157.432 388.159 158.11 388.348 158.602 388.727C159.098 389.106 159.451 389.606 159.659 390.227Z" fill="#252B36"/>
<g filter="url(#filter4_d_1_363)">
<rect x="20" y="296" width="260" height="50" rx="10" fill="white"/>
</g>
<path d="M47.4533 322.812L56.56 327.588M56.5467 314.412L47.4533 319.188M64 312.6C64 314.588 62.2091 316.2 60 316.2C57.7909 316.2 56 314.588 56 312.6C56 310.612 57.7909 309 60 309C62.2091 309 64 310.612 64 312.6ZM48 321C48 322.988 46.2091 324.6 44 324.6C41.7909 324.6 40 322.988 40 321C40 319.012 41.7909 317.4 44 317.4C46.2091 317.4 48 319.012 48 321ZM64 329.4C64 331.388 62.2091 333 60 333C57.7909 333 56 331.388 56 329.4C56 327.412 57.7909 325.8 60 325.8C62.2091 325.8 64 327.412 64 329.4Z" stroke="#787878" stroke-width="3" stroke-linecap="round" stroke-linejoin="round"/>
<path d="M97.7727 318.273C97.7045 317.697 97.428 317.25 96.9432 316.932C96.4583 316.614 95.8636 316.455 95.1591 316.455C94.6439 316.455 94.1932 316.538 93.8068 316.705C93.4242 316.871 93.125 317.1 92.9091 317.392C92.697 317.684 92.5909 318.015 92.5909 318.386C92.5909 318.697 92.6648 318.964 92.8125 319.188C92.964 319.407 93.1572 319.591 93.392 319.739C93.6269 319.883 93.8731 320.002 94.1307 320.097C94.3883 320.187 94.625 320.261 94.8409 320.318L96.0227 320.636C96.3258 320.716 96.6629 320.826 97.0341 320.966C97.4091 321.106 97.767 321.297 98.108 321.54C98.4527 321.778 98.7367 322.085 98.9602 322.46C99.1837 322.835 99.2955 323.295 99.2955 323.841C99.2955 324.47 99.1307 325.038 98.8011 325.545C98.4754 326.053 97.9981 326.456 97.3693 326.756C96.7443 327.055 95.9848 327.205 95.0909 327.205C94.2576 327.205 93.536 327.07 92.9261 326.801C92.3201 326.532 91.8428 326.157 91.4943 325.676C91.1496 325.195 90.9545 324.636 90.9091 324H92.3636C92.4015 324.439 92.5492 324.803 92.8068 325.091C93.0682 325.375 93.3977 325.587 93.7955 325.727C94.197 325.864 94.6288 325.932 95.0909 325.932C95.6288 325.932 96.1117 325.845 96.5398 325.67C96.9678 325.492 97.3068 325.246 97.5568 324.932C97.8068 324.614 97.9318 324.242 97.9318 323.818C97.9318 323.432 97.8239 323.117 97.608 322.875C97.392 322.633 97.108 322.436 96.7557 322.284C96.4034 322.133 96.0227 322 95.6136 321.886L94.1818 321.477C93.2727 321.216 92.553 320.843 92.0227 320.358C91.4924 319.873 91.2273 319.239 91.2273 318.455C91.2273 317.803 91.4034 317.235 91.7557 316.75C92.1117 316.261 92.589 315.883 93.1875 315.614C93.7898 315.341 94.4621 315.205 95.2045 315.205C95.9545 315.205 96.6212 315.339 97.2045 315.608C97.7879 315.873 98.25 316.237 98.5909 316.699C98.9356 317.161 99.1174 317.686 99.1364 318.273H97.7727ZM102.771 321.75V327H101.43V315.364H102.771V319.636H102.885C103.089 319.186 103.396 318.828 103.805 318.562C104.218 318.294 104.768 318.159 105.453 318.159C106.048 318.159 106.569 318.278 107.016 318.517C107.463 318.752 107.809 319.114 108.055 319.602C108.305 320.087 108.43 320.705 108.43 321.455V327H107.089V321.545C107.089 320.852 106.91 320.316 106.55 319.938C106.194 319.555 105.699 319.364 105.067 319.364C104.627 319.364 104.233 319.456 103.885 319.642C103.54 319.828 103.268 320.098 103.067 320.455C102.87 320.811 102.771 321.242 102.771 321.75ZM110.884 327V318.273H112.179V319.591H112.27C112.429 319.159 112.717 318.809 113.134 318.54C113.55 318.271 114.02 318.136 114.543 318.136C114.641 318.136 114.764 318.138 114.912 318.142C115.06 318.146 115.171 318.152 115.247 318.159V319.523C115.202 319.511 115.098 319.494 114.935 319.472C114.776 319.445 114.607 319.432 114.429 319.432C114.005 319.432 113.626 319.521 113.293 319.699C112.963 319.873 112.702 320.116 112.509 320.426C112.319 320.733 112.224 321.083 112.224 321.477V327H110.884ZM120.23 327.182C119.389 327.182 118.664 326.996 118.054 326.625C117.448 326.25 116.98 325.727 116.651 325.057C116.325 324.383 116.162 323.598 116.162 322.705C116.162 321.811 116.325 321.023 116.651 320.341C116.98 319.655 117.438 319.121 118.026 318.739C118.616 318.352 119.306 318.159 120.094 318.159C120.548 318.159 120.997 318.235 121.44 318.386C121.884 318.538 122.287 318.784 122.651 319.125C123.014 319.462 123.304 319.909 123.52 320.466C123.736 321.023 123.844 321.708 123.844 322.523V323.091H117.116V321.932H122.48C122.48 321.439 122.382 321 122.185 320.614C121.991 320.227 121.715 319.922 121.355 319.699C120.999 319.475 120.579 319.364 120.094 319.364C119.56 319.364 119.098 319.496 118.707 319.761C118.321 320.023 118.024 320.364 117.815 320.784C117.607 321.205 117.503 321.655 117.503 322.136V322.909C117.503 323.568 117.616 324.127 117.844 324.585C118.075 325.04 118.395 325.386 118.804 325.625C119.213 325.86 119.688 325.977 120.23 325.977C120.582 325.977 120.901 325.928 121.185 325.83C121.473 325.727 121.721 325.576 121.929 325.375C122.137 325.17 122.298 324.917 122.412 324.614L123.707 324.977C123.571 325.417 123.342 325.803 123.02 326.136C122.698 326.466 122.3 326.723 121.827 326.909C121.353 327.091 120.821 327.182 120.23 327.182Z" fill="#252B36"/>
<g filter="url(#filter5_d_1_363)">
<rect x="20" y="436" width="260" height="50" rx="10" fill="white"/>
</g>
<path fill-rule="evenodd" clip-rule="evenodd" d="M49.5496 449.267L49.6543 449.246C50.85 449.004 52.1674 448.918 53.3814 449.09L53.4703 449.103C55.8353 449.434 58.1082 450.371 59.8986 451.975L60.068 452.131C60.0776 452.14 60.0872 452.148 60.0968 452.156C60.2575 452.297 60.416 452.437 60.5562 452.599C60.6116 452.666 60.6682 452.731 60.7296 452.792C61.1409 453.199 61.4947 453.647 61.83 454.117L61.8869 454.197C62.1364 454.55 62.3556 454.914 62.5589 455.295L62.6001 455.373C62.9478 456.027 63.2465 456.708 63.4636 457.417L63.4917 457.51C63.8278 458.621 63.9985 459.752 64 460.912L63.9999 461.001C63.9991 462.153 63.8607 463.297 63.5207 464.399L63.4917 464.492C63.0905 465.803 62.4595 467.13 61.5993 468.206C61.5921 468.214 61.5848 468.223 61.5776 468.232C61.5232 468.297 61.4688 468.362 61.4168 468.429C61.0541 468.905 60.6566 469.339 60.2115 469.739L60.1037 469.835C59.236 470.629 58.2804 471.285 57.2201 471.794L57.1436 471.83C55.1378 472.798 52.8116 473.194 50.5957 472.91L50.5102 472.899C49.7865 472.809 49.0807 472.651 48.3863 472.428L48.2991 472.4C47.5418 472.158 46.8095 471.848 46.1237 471.445C46.0768 471.417 46.0297 471.39 45.9825 471.362C45.3501 470.998 44.7232 470.58 44.1799 470.091C44.0734 469.992 43.9656 469.896 43.8545 469.802C43.8171 469.772 43.8001 469.758 43.784 469.743C43.7705 469.731 43.7577 469.717 43.7341 469.693V469.622C43.6282 469.595 43.6282 469.595 43.5734 469.531C43.4861 469.425 43.3983 469.322 43.3011 469.225C43.1574 469.085 43.0227 468.944 42.896 468.789L42.7355 468.589C41.2253 466.797 40.3548 464.587 40.0677 462.276C39.7294 459.173 40.672 456.034 42.5932 453.585L42.6999 453.449C43.0928 452.929 43.5792 452.473 44.0637 452.039L44.1621 451.953C44.9106 451.291 45.7368 450.736 46.6319 450.292L46.7299 450.243C47.622 449.797 48.5722 449.47 49.5496 449.267Z" fill="#787878"/>
<path d="M58.6719 455.584C58.8895 455.758 59.0211 455.96 59.1712 456.19C59.186 456.212 59.2008 456.235 59.2161 456.258C59.4421 456.603 59.6377 456.956 59.8132 457.33C59.8266 457.358 59.84 457.386 59.8538 457.415C60.0391 457.806 60.2017 458.193 60.3125 458.612C60.32 458.64 60.3275 458.669 60.3353 458.698C60.6291 459.822 60.7297 460.985 60.5621 462.139C60.5583 462.166 60.5545 462.192 60.5505 462.22C60.4949 462.603 60.4158 462.977 60.3125 463.35C60.3009 463.393 60.2894 463.435 60.2775 463.479C59.8915 464.81 59.1656 465.991 58.2083 466.983C58.1875 467.005 58.1667 467.027 58.1453 467.049C57.8415 467.365 57.5282 467.65 57.1741 467.909C57.1504 467.927 57.1268 467.944 57.1025 467.962C56.3708 468.502 55.5735 468.898 54.7133 469.192C54.6754 469.205 54.6754 469.205 54.6366 469.219C52.5458 469.939 50.1781 469.698 48.2016 468.755C47.7584 468.536 47.3301 468.283 46.9386 467.981C46.9063 467.957 46.8739 467.933 46.8406 467.909C46.8141 467.889 46.7876 467.87 46.7603 467.849C46.7195 467.819 46.7195 467.819 46.6779 467.789C46.658 467.77 46.6381 467.751 46.6177 467.731C46.6177 467.624 46.6177 467.624 46.6777 467.551C46.7203 467.509 46.7203 467.509 46.7637 467.466C46.8122 467.417 46.8122 467.417 46.8617 467.368C46.898 467.332 46.9344 467.296 46.9707 467.26C47.0086 467.222 47.0465 467.185 47.0843 467.147C47.1874 467.044 47.2908 466.941 47.3943 466.839C47.5023 466.732 47.61 466.624 47.7178 466.517C47.922 466.314 48.1265 466.11 48.3311 465.907C48.6977 465.543 49.0638 465.179 49.4298 464.815C49.5583 464.687 49.687 464.559 49.8157 464.431C49.8957 464.352 49.9756 464.272 50.0555 464.193C50.0926 464.156 50.1298 464.119 50.1671 464.082C50.2177 464.032 50.2683 463.981 50.3188 463.931C50.3472 463.903 50.3756 463.875 50.4048 463.846C50.4714 463.782 50.4714 463.782 50.505 463.706C50.5452 463.706 50.5452 463.706 50.5863 463.706C50.8407 463.708 51.0951 463.709 51.3496 463.71C51.4803 463.71 51.6111 463.711 51.7418 463.711C51.8683 463.712 51.9948 463.713 52.1213 463.713C52.1924 463.713 52.2635 463.713 52.3346 463.714C53.0731 463.714 53.7979 463.517 54.332 462.988C54.831 462.461 55.019 461.789 55.0145 461.076C55.0142 461.003 55.0152 460.931 55.0164 460.858C55.019 460.375 54.8941 459.99 54.7133 459.538C56.0197 458.233 57.326 456.928 58.6719 455.584Z" fill="#FEFDFD"/>
<path d="M59.5675 458.715C59.6982 458.823 59.7964 458.91 59.8214 459.082C59.8218 459.376 59.798 459.534 59.6031 459.757C59.4633 459.821 59.3471 459.828 59.1997 459.795C59.1174 459.753 59.0398 459.709 58.9612 459.661C58.5001 459.381 57.9763 459.278 57.4441 459.392C57.2987 459.443 57.2159 459.496 57.1089 459.608C57.0437 459.762 57.036 459.842 57.0599 460.009C57.2573 460.312 57.7011 460.378 58.033 460.451C58.6295 460.585 59.3513 460.777 59.7201 461.301C59.9457 461.686 59.9699 462.124 59.8897 462.556C59.7604 462.988 59.4338 463.344 59.0414 463.56C58.1676 463.951 57.1705 463.921 56.2824 463.585C56.0355 463.478 55.8076 463.351 55.6333 463.143C55.5664 462.943 55.5499 462.688 55.6325 462.49C55.7084 462.38 55.7878 462.287 55.9186 462.253C56.1614 462.219 56.3185 462.32 56.5249 462.431C56.9153 462.63 57.2537 462.686 57.6884 462.691C57.7199 462.692 57.7514 462.693 57.7838 462.693C58.0326 462.693 58.2697 462.661 58.4686 462.502C58.5704 462.367 58.5748 462.24 58.5577 462.075C58.4377 461.93 58.3325 461.866 58.1543 461.81C58.1319 461.803 58.1094 461.796 58.0863 461.788C57.8634 461.719 57.6364 461.667 57.4098 461.612C57.1145 461.54 56.8323 461.466 56.5606 461.327C56.5237 461.308 56.4869 461.289 56.449 461.27C56.1167 461.09 55.8739 460.867 55.7403 460.507C55.6369 460.125 55.6505 459.633 55.8278 459.28C55.9185 459.131 56.0146 458.997 56.1326 458.869C56.1522 458.847 56.1718 458.826 56.192 458.804C57.0404 457.975 58.6531 458.027 59.5675 458.715Z" fill="#787878"/>
<path d="M53.3582 452.485C53.3858 452.489 53.4134 452.493 53.4417 452.497C53.6057 452.522 53.7674 452.554 53.9288 452.592C53.9571 452.598 53.9853 452.605 54.0144 452.611C55.1686 452.886 56.4633 453.419 57.3525 454.23C57.3989 454.31 57.3989 454.31 57.4239 454.373C57.3273 454.472 57.2298 454.565 57.123 454.653C57.0128 454.746 56.9231 454.847 56.8317 454.958C56.7819 455.014 56.7819 455.014 56.695 455.083C56.5841 455.172 56.4995 455.275 56.4093 455.384C56.391 455.403 56.3728 455.422 56.354 455.441C56.3304 455.441 56.3069 455.441 56.2826 455.441C56.2709 455.477 56.2591 455.512 56.247 455.548C56.1893 455.609 56.1294 455.668 56.0687 455.726C56.0285 455.767 55.9884 455.808 55.9483 455.849C55.8667 455.931 55.7834 456.007 55.6942 456.08C55.5753 456.18 55.4759 456.291 55.376 456.409C55.3236 456.47 55.2728 456.528 55.2127 456.581C55.1892 456.581 55.1657 456.581 55.1414 456.581C55.1296 456.617 55.1179 456.652 55.1057 456.688C55.048 456.749 54.9882 456.808 54.9274 456.866C54.8873 456.907 54.8471 456.948 54.8071 456.989C54.7255 457.071 54.6421 457.147 54.553 457.22C54.4341 457.32 54.3347 457.431 54.2348 457.549C54.1824 457.61 54.1315 457.668 54.0715 457.721C54.048 457.721 54.0244 457.721 54.0002 457.721C53.9884 457.756 53.9766 457.792 53.9645 457.828C53.9068 457.889 53.8469 457.948 53.7862 458.006C53.7445 458.048 53.7029 458.089 53.6614 458.131C53.6198 458.172 53.5782 458.214 53.5365 458.256C53.5104 458.287 53.4843 458.319 53.4573 458.351C53.3582 458.434 53.3582 458.434 53.2563 458.428C53.2157 458.416 53.1752 458.405 53.1334 458.392C52.6966 458.287 52.2429 458.309 51.7964 458.311C51.6668 458.311 51.5372 458.311 51.4077 458.31C51.3069 458.309 51.2062 458.309 51.1055 458.309C51.0347 458.309 50.9638 458.309 50.893 458.308C50.5811 458.305 50.5811 458.305 50.3268 458.469C50.2033 458.652 50.1636 458.786 50.1675 459.008C50.1675 459.036 50.1674 459.064 50.1673 459.093C50.1672 459.153 50.1674 459.213 50.1679 459.273C50.1687 459.368 50.1686 459.463 50.1682 459.558C50.1674 459.794 50.1681 460.03 50.169 460.266C50.1697 460.466 50.1698 460.666 50.1689 460.866C50.1687 460.959 50.1696 461.053 50.1705 461.146C50.1703 461.204 50.1701 461.261 50.1698 461.319C50.1703 461.345 50.1708 461.371 50.1714 461.397C50.1694 461.535 50.1473 461.622 50.0625 461.729C49.9702 461.818 49.9702 461.818 49.8989 461.818C49.8867 461.848 49.8867 461.848 49.8743 461.878C49.8141 461.984 49.7396 462.057 49.6492 462.138C49.6257 462.138 49.6021 462.138 49.5779 462.138C49.5647 462.169 49.5647 462.169 49.5511 462.201C49.5 462.293 49.4429 462.354 49.3639 462.423C49.3404 462.423 49.3168 462.423 49.2926 462.423C49.0114 461.823 48.7313 461.222 48.4523 460.62C48.4232 460.557 48.3941 460.495 48.3651 460.432C48.2463 460.176 48.1275 459.92 48.0089 459.663C47.9766 459.594 47.9443 459.524 47.912 459.454C47.874 459.372 47.836 459.29 47.7981 459.208C47.719 459.038 47.6391 458.868 47.5571 458.698C47.5436 458.671 47.5301 458.643 47.5161 458.614C47.417 458.443 47.2668 458.353 47.0814 458.291C46.8296 458.261 46.6101 458.262 46.396 458.406C46.1801 458.621 46.0701 458.888 45.9489 459.162C45.8907 459.294 45.8317 459.425 45.7726 459.556C45.7602 459.583 45.7478 459.611 45.7351 459.639C45.5939 459.952 45.4461 460.261 45.2983 460.571C45.0902 461.007 44.8852 461.445 44.6853 461.885C44.6747 461.908 44.664 461.931 44.6531 461.955C44.5927 462.088 44.5327 462.221 44.4732 462.355C44.4516 462.403 44.4298 462.451 44.408 462.499C44.3731 462.576 44.3385 462.653 44.3039 462.731C44.2877 462.766 44.2877 462.766 44.2712 462.802C44.1798 463.008 44.1386 463.165 44.2179 463.383C44.2953 463.54 44.3989 463.623 44.5493 463.706C44.7382 463.769 44.9078 463.772 45.0865 463.683C45.2951 463.539 45.3804 463.29 45.4766 463.065C45.4944 463.023 45.5122 462.981 45.5305 462.938C45.5613 462.865 45.5916 462.791 45.6212 462.717C45.6549 462.637 45.6549 462.637 45.6906 462.601C45.765 462.598 45.8395 462.597 45.914 462.597C45.9489 462.597 45.9489 462.597 45.9846 462.597C46.062 462.597 46.1394 462.598 46.2167 462.598C46.2703 462.598 46.3238 462.598 46.3773 462.598C46.5184 462.598 46.6596 462.599 46.8007 462.599C46.9446 462.599 47.0885 462.6 47.2324 462.6C47.5149 462.6 47.7975 462.601 48.08 462.601C48.1291 462.704 48.1771 462.808 48.2249 462.911C48.2458 462.955 48.2458 462.955 48.2671 462.999C48.3669 463.217 48.3669 463.217 48.359 463.348C48.2666 463.577 48.0352 463.753 47.8638 463.926C47.8374 463.953 47.8374 463.953 47.8104 463.98C47.7233 464.067 47.635 464.149 47.5398 464.226C47.4536 464.298 47.3828 464.368 47.311 464.454C47.216 464.567 47.1152 464.671 47.0101 464.774C46.97 464.815 46.9298 464.855 46.8898 464.896C46.8467 464.939 46.8036 464.983 46.7605 465.026C46.739 465.048 46.7174 465.07 46.6953 465.092C46.5794 465.208 46.4612 465.313 46.3325 465.416C46.2897 465.462 46.248 465.509 46.2077 465.558C46.114 465.668 46.0173 465.753 45.9046 465.843C45.8381 465.918 45.7737 465.994 45.7102 466.071C45.692 466.09 45.6737 466.109 45.6549 466.128C45.6314 466.128 45.6078 466.128 45.5836 466.128C45.5748 466.149 45.5659 466.169 45.5568 466.19C45.5063 466.281 45.4453 466.342 45.3696 466.413C45.2143 466.358 45.1383 466.239 45.0464 466.11C45.0294 466.087 45.0124 466.063 44.9949 466.039C44.343 465.121 43.8713 464.098 43.6063 463.004C43.5895 462.935 43.5717 462.866 43.5535 462.798C43.2351 461.498 43.3122 460.074 43.6577 458.79C43.6658 458.76 43.6738 458.729 43.6821 458.698C43.9831 457.584 44.5232 456.508 45.2626 455.62C45.2897 455.586 45.3169 455.552 45.3448 455.518C45.7223 455.056 46.1443 454.63 46.6178 454.266C46.6519 454.238 46.686 454.211 46.7211 454.183C47.2166 453.788 47.7552 453.463 48.3297 453.197C48.3521 453.187 48.3745 453.176 48.3977 453.165C49.956 452.433 51.6641 452.239 53.3582 452.485Z" fill="#FEFDFD"/>
<path d="M47.089 458.287C47.4127 458.432 47.5515 458.734 47.687 459.043C47.7243 459.125 47.7617 459.208 47.799 459.291C47.8091 459.313 47.8192 459.336 47.8296 459.359C47.9579 459.645 48.0904 459.928 48.2225 460.212C48.2811 460.339 48.3397 460.465 48.3982 460.591C48.5151 460.843 48.632 461.094 48.7491 461.346C48.7599 461.369 48.7706 461.392 48.7817 461.416C48.8305 461.521 48.8794 461.626 48.9283 461.731C48.9613 461.802 48.9941 461.872 49.0269 461.943C49.0561 462.007 49.0857 462.07 49.1154 462.133C49.1287 462.162 49.1419 462.19 49.1555 462.22C49.1671 462.244 49.1786 462.269 49.1905 462.294C49.2226 462.385 49.2125 462.45 49.1782 462.538C49.1429 462.55 49.1076 462.562 49.0712 462.574C49.0609 462.594 49.0506 462.615 49.04 462.636C48.9858 462.744 48.9112 462.814 48.8216 462.894C48.798 462.894 48.7745 462.894 48.7503 462.894C48.7503 462.918 48.7503 462.941 48.7503 462.966C48.6656 463.059 48.6656 463.059 48.5719 463.144C48.5484 463.144 48.5249 463.144 48.5006 463.144C48.491 463.166 48.4815 463.188 48.4716 463.21C48.4293 463.286 48.4293 463.286 48.3223 463.357C48.0013 462.728 48.0013 462.728 48.0013 462.609C47.2128 462.621 46.4243 462.633 45.6119 462.645C45.4824 462.939 45.3529 463.233 45.2196 463.535C44.8979 463.803 44.8979 463.803 44.6544 463.796C44.4642 463.768 44.3126 463.677 44.1876 463.533C44.0677 463.363 44.0463 463.204 44.0783 463.001C44.1357 462.837 44.209 462.682 44.2836 462.525C44.3336 462.419 44.3826 462.314 44.4315 462.208C44.5103 462.037 44.5895 461.867 44.669 461.696C44.783 461.452 44.8966 461.208 45.01 460.964C45.0284 460.925 45.0468 460.885 45.0657 460.844C45.1715 460.617 45.2771 460.389 45.3824 460.162C45.443 460.03 45.5037 459.899 45.5644 459.768C45.5942 459.704 45.6239 459.64 45.6536 459.575C45.746 459.375 45.8389 459.175 45.9328 458.976C45.9436 458.953 45.9544 458.93 45.9655 458.906C45.994 458.846 46.0229 458.787 46.0519 458.727C46.0674 458.695 46.0828 458.663 46.0987 458.63C46.3104 458.27 46.6997 458.182 47.089 458.287Z" fill="#787878"/>
<path d="M46.8114 459.865C46.9013 459.91 46.9068 459.941 46.9454 460.032C46.9573 460.06 46.9692 460.088 46.9814 460.117C46.9941 460.147 47.0068 460.177 47.0198 460.208C47.0396 460.255 47.0396 460.255 47.0598 460.303C47.0877 460.369 47.1155 460.435 47.1432 460.501C47.1855 460.601 47.2281 460.702 47.2707 460.802C47.2978 460.866 47.3249 460.93 47.3519 460.994C47.3646 461.024 47.3773 461.054 47.3903 461.085C47.4022 461.114 47.4141 461.142 47.4264 461.171C47.4368 461.196 47.4472 461.221 47.4579 461.246C47.4956 461.343 47.5276 461.441 47.5603 461.539C47.0778 461.539 46.5953 461.539 46.0981 461.539C46.2185 461.179 46.2185 461.179 46.2691 461.062C46.2804 461.036 46.2917 461.009 46.3033 460.982C46.3152 460.955 46.327 460.928 46.3392 460.9C46.3578 460.857 46.3578 460.857 46.3768 460.813C46.4028 460.753 46.4289 460.693 46.455 460.633C46.4952 460.541 46.5351 460.449 46.575 460.357C46.6004 460.298 46.6258 460.24 46.6512 460.181C46.6632 460.154 46.6751 460.126 46.6875 460.098C46.7716 459.905 46.7716 459.905 46.8114 459.865Z" fill="#F8F7F8"/>
<path d="M54.6712 459.581C54.6991 459.644 54.7265 459.706 54.7536 459.768C54.7766 459.82 54.7766 459.82 54.8 459.874C54.9429 460.244 54.9758 460.604 54.9721 460.997C54.9719 461.023 54.9718 461.048 54.9717 461.074C54.9663 461.792 54.806 462.469 54.2863 462.997C54.2603 463.022 54.2343 463.047 54.2075 463.072C54.1735 463.107 54.1735 463.107 54.1389 463.142C53.8735 463.395 53.5446 463.526 53.2 463.636C53.1769 463.643 53.1538 463.65 53.1299 463.658C52.802 463.757 52.4818 463.754 52.1424 463.753C52.0948 463.753 52.0473 463.753 51.9997 463.752C51.8754 463.752 51.7511 463.752 51.6268 463.752C51.4996 463.751 51.3724 463.751 51.2452 463.751C50.9963 463.751 50.7474 463.75 50.4985 463.749C50.6978 463.324 51.2541 462.731 51.6948 462.56C51.9137 462.52 52.1183 462.535 52.3373 462.567C52.6339 462.591 52.9556 462.429 53.1822 462.249C53.4264 462.022 53.5523 461.695 53.5717 461.366C53.575 461.21 53.5768 461.053 53.5764 460.897C53.5818 460.604 53.5818 460.604 53.6819 460.472C53.7141 460.449 53.7464 460.425 53.7796 460.401C53.8064 460.374 53.8333 460.347 53.8609 460.319C54.0002 460.18 54.1396 460.041 54.2789 459.902C54.3051 459.875 54.3314 459.848 54.3584 459.82C54.3873 459.79 54.4162 459.761 54.446 459.731C54.4734 459.702 54.5007 459.674 54.5289 459.645C54.5998 459.581 54.5998 459.581 54.6712 459.581Z" fill="#787878"/>
<path d="M50.9584 458.281C51.0073 458.281 51.0562 458.281 51.1051 458.281C51.2075 458.281 51.3099 458.281 51.4123 458.282C51.5421 458.283 51.6718 458.283 51.8016 458.283C51.9027 458.282 52.0037 458.283 52.1048 458.283C52.1754 458.283 52.2461 458.283 52.3168 458.283C52.6285 458.286 52.9077 458.33 53.2097 458.406C53.1986 458.475 53.1986 458.475 53.174 458.548C53.1387 458.56 53.1034 458.572 53.067 458.584C53.0567 458.604 53.0464 458.625 53.0358 458.646C52.9816 458.755 52.907 458.824 52.8174 458.904C52.7939 458.904 52.7703 458.904 52.7461 458.904C52.7461 458.928 52.7461 458.951 52.7461 458.976C52.6614 459.069 52.6614 459.069 52.5678 459.154C52.5442 459.154 52.5207 459.154 52.4964 459.154C52.4832 459.185 52.4832 459.185 52.4697 459.216C52.4169 459.311 52.3663 459.369 52.2824 459.439C52.1877 459.455 52.1877 459.455 52.0813 459.453C52.0297 459.452 52.0297 459.452 51.977 459.452C51.912 459.45 51.912 459.45 51.8456 459.448C51.7073 459.445 51.569 459.442 51.4265 459.439C51.4265 459.721 51.4265 460.003 51.4265 460.294C51.403 460.294 51.3794 460.294 51.3552 460.294C51.3478 460.314 51.3405 460.333 51.3329 460.354C51.2783 460.446 51.2123 460.498 51.129 460.563C51.0423 460.638 50.9733 460.726 50.9022 460.815C50.8869 460.831 50.8716 460.847 50.8559 460.864C50.8324 460.864 50.8088 460.864 50.7846 460.864C50.761 460.911 50.7375 460.958 50.7133 461.006C50.6897 461.006 50.6662 461.006 50.6419 461.006C50.6302 461.041 50.6184 461.077 50.6063 461.113C50.5827 461.113 50.5592 461.113 50.5349 461.113C50.5254 461.136 50.5158 461.159 50.506 461.182C50.4636 461.256 50.4636 461.256 50.3566 461.291C50.3566 461.315 50.3566 461.338 50.3566 461.362C50.3331 461.362 50.3095 461.362 50.2853 461.362C50.2853 461.386 50.2853 461.409 50.2853 461.434C50.2184 461.509 50.2184 461.509 50.1426 461.576C50.1191 461.576 50.0956 461.576 50.0713 461.576C50.0672 461.209 50.064 460.843 50.0621 460.476C50.0611 460.306 50.0599 460.136 50.0579 459.965C50.0559 459.801 50.0549 459.637 50.0544 459.472C50.0541 459.409 50.0534 459.347 50.0525 459.284C50.0435 458.679 50.0435 458.679 50.1983 458.491C50.2152 458.475 50.2322 458.458 50.2496 458.441C50.2784 458.412 50.3072 458.383 50.3368 458.353C50.5396 458.266 50.7401 458.279 50.9584 458.281Z" fill="#787878"/>
<path d="M53.6246 460.613C53.6614 461.77 53.6614 461.77 53.3393 462.144C53.0624 462.433 52.7597 462.598 52.3538 462.61C52.2439 462.611 52.1341 462.611 52.0242 462.61C51.967 462.609 51.967 462.609 51.9086 462.609C51.8149 462.609 51.7212 462.608 51.6274 462.607C51.8189 462.375 52.0304 462.164 52.2433 461.952C52.2821 461.913 52.3209 461.874 52.3597 461.836C52.4405 461.755 52.5213 461.674 52.6022 461.594C52.7061 461.49 52.8099 461.386 52.9136 461.282C52.9934 461.203 53.0733 461.123 53.1532 461.043C53.1915 461.005 53.2298 460.967 53.2681 460.928C53.3213 460.875 53.3745 460.822 53.4279 460.769C53.4582 460.739 53.4885 460.708 53.5197 460.677C53.5889 460.613 53.5889 460.613 53.6246 460.613Z" fill="#F8F9F8"/>
<path d="M51.4497 459.437C51.7086 459.437 51.9675 459.437 52.2343 459.437C52.1631 459.58 52.0984 459.649 51.9847 459.758C51.9544 459.788 51.9242 459.818 51.893 459.849C51.7605 459.982 51.7605 459.982 51.628 460.114C51.5984 460.146 51.5984 460.146 51.5681 460.178C51.521 460.221 51.521 460.221 51.4497 460.221C51.4497 459.962 51.4497 459.704 51.4497 459.437Z" fill="#FCF8F3"/>
<path d="M91.4091 467V455.364H95.3409C96.25 455.364 96.9962 455.519 97.5795 455.83C98.1629 456.136 98.5947 456.559 98.875 457.097C99.1553 457.634 99.2955 458.246 99.2955 458.932C99.2955 459.617 99.1553 460.225 98.875 460.756C98.5947 461.286 98.1648 461.703 97.5852 462.006C97.0057 462.305 96.2652 462.455 95.3636 462.455H92.1818V461.182H95.3182C95.9394 461.182 96.4394 461.091 96.8182 460.909C97.2008 460.727 97.4773 460.47 97.6477 460.136C97.822 459.799 97.9091 459.398 97.9091 458.932C97.9091 458.466 97.822 458.059 97.6477 457.71C97.4735 457.362 97.1951 457.093 96.8125 456.903C96.4299 456.71 95.9242 456.614 95.2955 456.614H92.8182V467H91.4091ZM96.8864 461.773L99.75 467H98.1136L95.2955 461.773H96.8864ZM105.027 467.182C104.186 467.182 103.461 466.996 102.851 466.625C102.245 466.25 101.777 465.727 101.447 465.057C101.122 464.383 100.959 463.598 100.959 462.705C100.959 461.811 101.122 461.023 101.447 460.341C101.777 459.655 102.235 459.121 102.822 458.739C103.413 458.352 104.103 458.159 104.891 458.159C105.345 458.159 105.794 458.235 106.237 458.386C106.68 458.538 107.084 458.784 107.447 459.125C107.811 459.462 108.101 459.909 108.317 460.466C108.533 461.023 108.641 461.708 108.641 462.523V463.091H101.913V461.932H107.277C107.277 461.439 107.179 461 106.982 460.614C106.788 460.227 106.512 459.922 106.152 459.699C105.796 459.475 105.375 459.364 104.891 459.364C104.357 459.364 103.894 459.496 103.504 459.761C103.118 460.023 102.821 460.364 102.612 460.784C102.404 461.205 102.3 461.655 102.3 462.136V462.909C102.3 463.568 102.413 464.127 102.641 464.585C102.872 465.04 103.192 465.386 103.601 465.625C104.01 465.86 104.485 465.977 105.027 465.977C105.379 465.977 105.697 465.928 105.982 465.83C106.269 465.727 106.518 465.576 106.726 465.375C106.934 465.17 107.095 464.917 107.209 464.614L108.504 464.977C108.368 465.417 108.139 465.803 107.817 466.136C107.495 466.466 107.097 466.723 106.624 466.909C106.15 467.091 105.618 467.182 105.027 467.182ZM110.68 467V458.273H111.976V459.636H112.089C112.271 459.17 112.565 458.809 112.97 458.551C113.375 458.29 113.862 458.159 114.43 458.159C115.006 458.159 115.485 458.29 115.868 458.551C116.254 458.809 116.555 459.17 116.771 459.636H116.862C117.086 459.186 117.421 458.828 117.868 458.562C118.315 458.294 118.851 458.159 119.476 458.159C120.256 458.159 120.894 458.403 121.391 458.892C121.887 459.377 122.135 460.133 122.135 461.159V467H120.794V461.159C120.794 460.515 120.618 460.055 120.266 459.778C119.913 459.502 119.499 459.364 119.021 459.364C118.408 459.364 117.932 459.549 117.595 459.92C117.258 460.288 117.089 460.754 117.089 461.318V467H115.726V461.023C115.726 460.527 115.565 460.127 115.243 459.824C114.921 459.517 114.506 459.364 113.999 459.364C113.65 459.364 113.324 459.456 113.021 459.642C112.722 459.828 112.48 460.085 112.294 460.415C112.112 460.741 112.021 461.117 112.021 461.545V467H110.68ZM128.132 467.182C127.344 467.182 126.653 466.994 126.058 466.619C125.467 466.244 125.005 465.72 124.672 465.045C124.342 464.371 124.178 463.583 124.178 462.682C124.178 461.773 124.342 460.979 124.672 460.301C125.005 459.623 125.467 459.097 126.058 458.722C126.653 458.347 127.344 458.159 128.132 458.159C128.92 458.159 129.609 458.347 130.2 458.722C130.795 459.097 131.257 459.623 131.587 460.301C131.92 460.979 132.087 461.773 132.087 462.682C132.087 463.583 131.92 464.371 131.587 465.045C131.257 465.72 130.795 466.244 130.2 466.619C129.609 466.994 128.92 467.182 128.132 467.182ZM128.132 465.977C128.731 465.977 129.223 465.824 129.609 465.517C129.996 465.21 130.282 464.807 130.467 464.307C130.653 463.807 130.746 463.265 130.746 462.682C130.746 462.098 130.653 461.555 130.467 461.051C130.282 460.547 129.996 460.14 129.609 459.83C129.223 459.519 128.731 459.364 128.132 459.364C127.534 459.364 127.041 459.519 126.655 459.83C126.268 460.14 125.982 460.547 125.797 461.051C125.611 461.555 125.518 462.098 125.518 462.682C125.518 463.265 125.611 463.807 125.797 464.307C125.982 464.807 126.268 465.21 126.655 465.517C127.041 465.824 127.534 465.977 128.132 465.977ZM140.957 458.273L137.73 467H136.366L133.139 458.273H134.594L137.003 465.227H137.094L139.503 458.273H140.957ZM146.074 467.182C145.233 467.182 144.508 466.996 143.898 466.625C143.292 466.25 142.824 465.727 142.494 465.057C142.169 464.383 142.006 463.598 142.006 462.705C142.006 461.811 142.169 461.023 142.494 460.341C142.824 459.655 143.282 459.121 143.869 458.739C144.46 458.352 145.15 458.159 145.938 458.159C146.392 458.159 146.841 458.235 147.284 458.386C147.727 458.538 148.131 458.784 148.494 459.125C148.858 459.462 149.148 459.909 149.364 460.466C149.58 461.023 149.688 461.708 149.688 462.523V463.091H142.96V461.932H148.324C148.324 461.439 148.225 461 148.028 460.614C147.835 460.227 147.559 459.922 147.199 459.699C146.843 459.475 146.422 459.364 145.938 459.364C145.403 459.364 144.941 459.496 144.551 459.761C144.165 460.023 143.867 460.364 143.659 460.784C143.451 461.205 143.347 461.655 143.347 462.136V462.909C143.347 463.568 143.46 464.127 143.688 464.585C143.919 465.04 144.239 465.386 144.648 465.625C145.057 465.86 145.532 465.977 146.074 465.977C146.426 465.977 146.744 465.928 147.028 465.83C147.316 465.727 147.564 465.576 147.773 465.375C147.981 465.17 148.142 464.917 148.256 464.614L149.551 464.977C149.415 465.417 149.186 465.803 148.864 466.136C148.542 466.466 148.144 466.723 147.67 466.909C147.197 467.091 146.665 467.182 146.074 467.182ZM158.795 467.205C158.242 467.205 157.741 467.1 157.29 466.892C156.839 466.68 156.481 466.375 156.216 465.977C155.951 465.576 155.818 465.091 155.818 464.523C155.818 464.023 155.917 463.617 156.114 463.307C156.311 462.992 156.574 462.746 156.903 462.568C157.233 462.39 157.597 462.258 157.994 462.17C158.396 462.08 158.799 462.008 159.205 461.955C159.735 461.886 160.165 461.835 160.494 461.801C160.828 461.763 161.07 461.701 161.222 461.614C161.377 461.527 161.455 461.375 161.455 461.159V461.114C161.455 460.553 161.301 460.117 160.994 459.807C160.691 459.496 160.231 459.341 159.614 459.341C158.973 459.341 158.472 459.481 158.108 459.761C157.744 460.042 157.489 460.341 157.341 460.659L156.068 460.205C156.295 459.674 156.598 459.261 156.977 458.966C157.36 458.667 157.777 458.458 158.227 458.341C158.682 458.22 159.129 458.159 159.568 458.159C159.848 458.159 160.17 458.193 160.534 458.261C160.902 458.326 161.256 458.46 161.597 458.665C161.941 458.869 162.227 459.178 162.455 459.591C162.682 460.004 162.795 460.557 162.795 461.25V467H161.455V465.818H161.386C161.295 466.008 161.144 466.21 160.932 466.426C160.72 466.642 160.438 466.826 160.085 466.977C159.733 467.129 159.303 467.205 158.795 467.205ZM159 466C159.53 466 159.977 465.896 160.341 465.688C160.708 465.479 160.985 465.21 161.17 464.881C161.36 464.551 161.455 464.205 161.455 463.841V462.614C161.398 462.682 161.273 462.744 161.08 462.801C160.89 462.854 160.67 462.902 160.42 462.943C160.174 462.981 159.934 463.015 159.699 463.045C159.468 463.072 159.28 463.095 159.136 463.114C158.788 463.159 158.462 463.233 158.159 463.335C157.86 463.434 157.617 463.583 157.432 463.784C157.25 463.981 157.159 464.25 157.159 464.591C157.159 465.057 157.331 465.409 157.676 465.648C158.025 465.883 158.466 466 159 466ZM168.538 467.182C167.811 467.182 167.169 466.998 166.612 466.631C166.055 466.259 165.62 465.737 165.305 465.062C164.991 464.384 164.834 463.583 164.834 462.659C164.834 461.742 164.991 460.947 165.305 460.273C165.62 459.598 166.057 459.078 166.618 458.71C167.179 458.343 167.826 458.159 168.561 458.159C169.129 458.159 169.578 458.254 169.908 458.443C170.241 458.629 170.495 458.841 170.669 459.08C170.847 459.314 170.985 459.508 171.084 459.659H171.197V455.364H172.538V467H171.243V465.659H171.084C170.985 465.818 170.845 466.019 170.663 466.261C170.482 466.5 170.222 466.714 169.885 466.903C169.548 467.089 169.099 467.182 168.538 467.182ZM168.72 465.977C169.258 465.977 169.713 465.837 170.084 465.557C170.455 465.273 170.737 464.881 170.93 464.381C171.124 463.877 171.22 463.295 171.22 462.636C171.22 461.985 171.125 461.415 170.936 460.926C170.747 460.434 170.466 460.051 170.095 459.778C169.724 459.502 169.266 459.364 168.72 459.364C168.152 459.364 167.679 459.509 167.3 459.801C166.925 460.089 166.643 460.481 166.453 460.977C166.268 461.47 166.175 462.023 166.175 462.636C166.175 463.258 166.269 463.822 166.459 464.33C166.652 464.833 166.936 465.235 167.311 465.534C167.69 465.83 168.16 465.977 168.72 465.977ZM181.362 460.227L180.158 460.568C180.082 460.367 179.97 460.172 179.822 459.983C179.679 459.79 179.482 459.631 179.232 459.506C178.982 459.381 178.661 459.318 178.271 459.318C177.737 459.318 177.292 459.441 176.936 459.688C176.584 459.93 176.408 460.239 176.408 460.614C176.408 460.947 176.529 461.21 176.771 461.403C177.014 461.597 177.393 461.758 177.908 461.886L179.203 462.205C179.983 462.394 180.565 462.684 180.947 463.074C181.33 463.46 181.521 463.958 181.521 464.568C181.521 465.068 181.377 465.515 181.089 465.909C180.805 466.303 180.408 466.614 179.896 466.841C179.385 467.068 178.79 467.182 178.112 467.182C177.222 467.182 176.485 466.989 175.902 466.602C175.319 466.216 174.949 465.652 174.794 464.909L176.067 464.591C176.188 465.061 176.417 465.413 176.754 465.648C177.095 465.883 177.54 466 178.089 466C178.714 466 179.211 465.867 179.578 465.602C179.949 465.333 180.135 465.011 180.135 464.636C180.135 464.333 180.029 464.08 179.817 463.875C179.605 463.667 179.279 463.511 178.839 463.409L177.385 463.068C176.586 462.879 175.999 462.585 175.624 462.188C175.252 461.786 175.067 461.284 175.067 460.682C175.067 460.189 175.205 459.754 175.482 459.375C175.762 458.996 176.143 458.699 176.624 458.483C177.108 458.267 177.658 458.159 178.271 458.159C179.135 458.159 179.813 458.348 180.305 458.727C180.802 459.106 181.154 459.606 181.362 460.227Z" fill="#252B36"/>
<g filter="url(#filter6_d_1_363)">
<rect x="20" y="720" width="260" height="50" rx="10" fill="white"/>
</g>
<path d="M45.775 752.65C47.05 751.675 48.475 750.906 50.05 750.344C51.625 749.781 53.275 749.5 55 749.5C56.725 749.5 58.375 749.781 59.95 750.344C61.525 750.906 62.95 751.675 64.225 752.65C65.1 751.625 65.7813 750.462 66.2688 749.163C66.7563 747.863 67 746.475 67 745C67 741.675 65.8313 738.844 63.4938 736.506C61.1563 734.169 58.325 733 55 733C51.675 733 48.8438 734.169 46.5063 736.506C44.1688 738.844 43 741.675 43 745C43 746.475 43.2437 747.863 43.7312 749.163C44.2188 750.462 44.9 751.625 45.775 752.65ZM55 746.5C53.525 746.5 52.2812 745.994 51.2688 744.981C50.2563 743.969 49.75 742.725 49.75 741.25C49.75 739.775 50.2563 738.531 51.2688 737.519C52.2812 736.506 53.525 736 55 736C56.475 736 57.7188 736.506 58.7313 737.519C59.7438 738.531 60.25 739.775 60.25 741.25C60.25 742.725 59.7438 743.969 58.7313 744.981C57.7188 745.994 56.475 746.5 55 746.5ZM55 760C52.925 760 50.975 759.606 49.15 758.819C47.325 758.031 45.7375 756.963 44.3875 755.613C43.0375 754.263 41.9688 752.675 41.1813 750.85C40.3938 749.025 40 747.075 40 745C40 742.925 40.3938 740.975 41.1813 739.15C41.9688 737.325 43.0375 735.737 44.3875 734.387C45.7375 733.037 47.325 731.969 49.15 731.181C50.975 730.394 52.925 730 55 730C57.075 730 59.025 730.394 60.85 731.181C62.675 731.969 64.2625 733.037 65.6125 734.387C66.9625 735.737 68.0312 737.325 68.8187 739.15C69.6062 740.975 70 742.925 70 745C70 747.075 69.6062 749.025 68.8187 750.85C68.0312 752.675 66.9625 754.263 65.6125 755.613C64.2625 756.963 62.675 758.031 60.85 758.819C59.025 759.606 57.075 760 55 760Z" fill="#1D1B20"/>
<path d="M94.4091 751V739.364H98.3409C99.2538 739.364 100 739.528 100.58 739.858C101.163 740.184 101.595 740.625 101.875 741.182C102.155 741.739 102.295 742.36 102.295 743.045C102.295 743.731 102.155 744.354 101.875 744.915C101.598 745.475 101.17 745.922 100.591 746.256C100.011 746.585 99.2689 746.75 98.3636 746.75H95.5455V745.5H98.3182C98.9432 745.5 99.4451 745.392 99.8239 745.176C100.203 744.96 100.477 744.669 100.648 744.301C100.822 743.93 100.909 743.511 100.909 743.045C100.909 742.58 100.822 742.163 100.648 741.795C100.477 741.428 100.201 741.14 99.8182 740.932C99.4356 740.72 98.928 740.614 98.2955 740.614H95.8182V751H94.4091ZM104.384 751V742.273H105.679V743.591H105.77C105.929 743.159 106.217 742.809 106.634 742.54C107.05 742.271 107.52 742.136 108.043 742.136C108.141 742.136 108.264 742.138 108.412 742.142C108.56 742.146 108.671 742.152 108.747 742.159V743.523C108.702 743.511 108.598 743.494 108.435 743.472C108.276 743.445 108.107 743.432 107.929 743.432C107.505 743.432 107.126 743.521 106.793 743.699C106.463 743.873 106.202 744.116 106.009 744.426C105.819 744.733 105.724 745.083 105.724 745.477V751H104.384ZM113.616 751.182C112.829 751.182 112.137 750.994 111.543 750.619C110.952 750.244 110.49 749.72 110.156 749.045C109.827 748.371 109.662 747.583 109.662 746.682C109.662 745.773 109.827 744.979 110.156 744.301C110.49 743.623 110.952 743.097 111.543 742.722C112.137 742.347 112.829 742.159 113.616 742.159C114.404 742.159 115.094 742.347 115.685 742.722C116.279 743.097 116.741 743.623 117.071 744.301C117.404 744.979 117.571 745.773 117.571 746.682C117.571 747.583 117.404 748.371 117.071 749.045C116.741 749.72 116.279 750.244 115.685 750.619C115.094 750.994 114.404 751.182 113.616 751.182ZM113.616 749.977C114.215 749.977 114.707 749.824 115.094 749.517C115.48 749.21 115.766 748.807 115.952 748.307C116.137 747.807 116.23 747.265 116.23 746.682C116.23 746.098 116.137 745.555 115.952 745.051C115.766 744.547 115.48 744.14 115.094 743.83C114.707 743.519 114.215 743.364 113.616 743.364C113.018 743.364 112.526 743.519 112.139 743.83C111.753 744.14 111.467 744.547 111.281 745.051C111.096 745.555 111.003 746.098 111.003 746.682C111.003 747.265 111.096 747.807 111.281 748.307C111.467 748.807 111.753 749.21 112.139 749.517C112.526 749.824 113.018 749.977 113.616 749.977ZM123.504 742.273V743.409H118.8V742.273H123.504ZM120.209 751V741.068C120.209 740.568 120.326 740.152 120.561 739.818C120.796 739.485 121.101 739.235 121.476 739.068C121.851 738.902 122.247 738.818 122.663 738.818C122.993 738.818 123.262 738.845 123.47 738.898C123.679 738.951 123.834 739 123.936 739.045L123.55 740.205C123.482 740.182 123.387 740.153 123.266 740.119C123.148 740.085 122.993 740.068 122.8 740.068C122.357 740.068 122.036 740.18 121.839 740.403C121.646 740.627 121.55 740.955 121.55 741.386V751H120.209ZM125.384 751V742.273H126.724V751H125.384ZM126.065 740.818C125.804 740.818 125.579 740.729 125.389 740.551C125.204 740.373 125.111 740.159 125.111 739.909C125.111 739.659 125.204 739.445 125.389 739.267C125.579 739.089 125.804 739 126.065 739C126.327 739 126.55 739.089 126.736 739.267C126.925 739.445 127.02 739.659 127.02 739.909C127.02 740.159 126.925 740.373 126.736 740.551C126.55 740.729 126.327 740.818 126.065 740.818ZM130.521 739.364V751H129.18V739.364H130.521ZM136.636 751.182C135.795 751.182 135.07 750.996 134.46 750.625C133.854 750.25 133.386 749.727 133.057 749.057C132.731 748.383 132.568 747.598 132.568 746.705C132.568 745.811 132.731 745.023 133.057 744.341C133.386 743.655 133.845 743.121 134.432 742.739C135.023 742.352 135.712 742.159 136.5 742.159C136.955 742.159 137.403 742.235 137.847 742.386C138.29 742.538 138.693 742.784 139.057 743.125C139.42 743.462 139.71 743.909 139.926 744.466C140.142 745.023 140.25 745.708 140.25 746.523V747.091H133.523V745.932H138.886C138.886 745.439 138.788 745 138.591 744.614C138.398 744.227 138.121 743.922 137.761 743.699C137.405 743.475 136.985 743.364 136.5 743.364C135.966 743.364 135.504 743.496 135.114 743.761C134.727 744.023 134.43 744.364 134.222 744.784C134.013 745.205 133.909 745.655 133.909 746.136V746.909C133.909 747.568 134.023 748.127 134.25 748.585C134.481 749.04 134.801 749.386 135.21 749.625C135.619 749.86 136.095 749.977 136.636 749.977C136.989 749.977 137.307 749.928 137.591 749.83C137.879 749.727 138.127 749.576 138.335 749.375C138.544 749.17 138.705 748.917 138.818 748.614L140.114 748.977C139.977 749.417 139.748 749.803 139.426 750.136C139.104 750.466 138.706 750.723 138.233 750.909C137.759 751.091 137.227 751.182 136.636 751.182Z" fill="#252B36"/>
<path d="M255.459 745L248 738.867L250.27 737L260 745L250.27 753L248 751.133L255.459 745Z" fill="black"/>
<defs>
<filter id="filter0_d_1_363" x="16" y="82" width="268" height="58" filterUnits="userSpaceOnUse" color-interpolation-filters="sRGB">
<feFlood flood-opacity="0" result="BackgroundImageFix"/>
<feColorMatrix in="SourceAlpha" type="matrix" values="0 0 0 0 0 0 0 0 0 0 0 0 0 0 0 0 0 0 127 0" result="hardAlpha"/>
<feOffset/>
<feGaussianBlur stdDeviation="2"/>
<feComposite in2="hardAlpha" operator="out"/>
<feColorMatrix type="matrix" values="0 0 0 0 0 0 0 0 0 0 0 0 0 0 0 0 0 0 0.25 0"/>
<feBlend mode="normal" in2="BackgroundImageFix" result="effect1_dropShadow_1_363"/>
<feBlend mode="normal" in="SourceGraphic" in2="effect1_dropShadow_1_363" result="shape"/>
</filter>
<filter id="filter1_d_1_363" x="16" y="152" width="268" height="58" filterUnits="userSpaceOnUse" color-interpolation-filters="sRGB">
<feFlood flood-opacity="0" result="BackgroundImageFix"/>
<feColorMatrix in="SourceAlpha" type="matrix" values="0 0 0 0 0 0 0 0 0 0 0 0 0 0 0 0 0 0 127 0" result="hardAlpha"/>
<feOffset/>
<feGaussianBlur stdDeviation="2"/>
<feComposite in2="hardAlpha" operator="out"/>
<feColorMatrix type="matrix" values="0 0 0 0 0 0 0 0 0 0 0 0 0 0 0 0 0 0 0.25 0"/>
<feBlend mode="normal" in2="BackgroundImageFix" result="effect1_dropShadow_1_363"/>
<feBlend mode="normal" in="SourceGraphic" in2="effect1_dropShadow_1_363" result="shape"/>
</filter>
<filter id="filter2_d_1_363" x="16" y="222" width="268" height="58" filterUnits="userSpaceOnUse" color-interpolation-filters="sRGB">
<feFlood flood-opacity="0" result="BackgroundImageFix"/>
<feColorMatrix in="SourceAlpha" type="matrix" values="0 0 0 0 0 0 0 0 0 0 0 0 0 0 0 0 0 0 127 0" result="hardAlpha"/>
<feOffset/>
<feGaussianBlur stdDeviation="2"/>
<feComposite in2="hardAlpha" operator="out"/>
<feColorMatrix type="matrix" values="0 0 0 0 0 0 0 0 0 0 0 0 0 0 0 0 0 0 0.25 0"/>
<feBlend mode="normal" in2="BackgroundImageFix" result="effect1_dropShadow_1_363"/>
<feBlend mode="normal" in="SourceGraphic" in2="effect1_dropShadow_1_363" result="shape"/>
</filter>
<filter id="filter3_d_1_363" x="16" y="362" width="268" height="58" filterUnits="userSpaceOnUse" color-interpolation-filters="sRGB">
<feFlood flood-opacity="0" result="BackgroundImageFix"/>
<feColorMatrix in="SourceAlpha" type="matrix" values="0 0 0 0 0 0 0 0 0 0 0 0 0 0 0 0 0 0 127 0" result="hardAlpha"/>
<feOffset/>
<feGaussianBlur stdDeviation="2"/>
<feComposite in2="hardAlpha" operator="out"/>
<feColorMatrix type="matrix" values="0 0 0 0 0 0 0 0 0 0 0 0 0 0 0 0 0 0 0.25 0"/>
<feBlend mode="normal" in2="BackgroundImageFix" result="effect1_dropShadow_1_363"/>
<feBlend mode="normal" in="SourceGraphic" in2="effect1_dropShadow_1_363" result="shape"/>
</filter>
<filter id="filter4_d_1_363" x="16" y="292" width="268" height="58" filterUnits="userSpaceOnUse" color-interpolation-filters="sRGB">
<feFlood flood-opacity="0" result="BackgroundImageFix"/>
<feColorMatrix in="SourceAlpha" type="matrix" values="0 0 0 0 0 0 0 0 0 0 0 0 0 0 0 0 0 0 127 0" result="hardAlpha"/>
<feOffset/>
<feGaussianBlur stdDeviation="2"/>
<feComposite in2="hardAlpha" operator="out"/>
<feColorMatrix type="matrix" values="0 0 0 0 0 0 0 0 0 0 0 0 0 0 0 0 0 0 0.25 0"/>
<feBlend mode="normal" in2="BackgroundImageFix" result="effect1_dropShadow_1_363"/>
<feBlend mode="normal" in="SourceGraphic" in2="effect1_dropShadow_1_363" result="shape"/>
</filter>
<filter id="filter5_d_1_363" x="16" y="432" width="268" height="58" filterUnits="userSpaceOnUse" color-interpolation-filters="sRGB">
<feFlood flood-opacity="0" result="BackgroundImageFix"/>
<feColorMatrix in="SourceAlpha" type="matrix" values="0 0 0 0 0 0 0 0 0 0 0 0 0 0 0 0 0 0 127 0" result="hardAlpha"/>
<feOffset/>
<feGaussianBlur stdDeviation="2"/>
<feComposite in2="hardAlpha" operator="out"/>
<feColorMatrix type="matrix" values="0 0 0 0 0 0 0 0 0 0 0 0 0 0 0 0 0 0 0.25 0"/>
<feBlend mode="normal" in2="BackgroundImageFix" result="effect1_dropShadow_1_363"/>
<feBlend mode="normal" in="SourceGraphic" in2="effect1_dropShadow_1_363" result="shape"/>
</filter>
<filter id="filter6_d_1_363" x="16" y="716" width="268" height="58" filterUnits="userSpaceOnUse" color-interpolation-filters="sRGB">
<feFlood flood-opacity="0" result="BackgroundImageFix"/>
<feColorMatrix in="SourceAlpha" type="matrix" values="0 0 0 0 0 0 0 0 0 0 0 0 0 0 0 0 0 0 127 0" result="hardAlpha"/>
<feOffset/>
<feGaussianBlur stdDeviation="2"/>
<feComposite in2="hardAlpha" operator="out"/>
<feColorMatrix type="matrix" values="0 0 0 0 0 0 0 0 0 0 0 0 0 0 0 0 0 0 0.25 0"/>
<feBlend mode="normal" in2="BackgroundImageFix" result="effect1_dropShadow_1_363"/>
<feBlend mode="normal" in="SourceGraphic" in2="effect1_dropShadow_1_363" result="shape"/>
</filter>
</defs>
</svg>
